<?xml version="1.0" encoding="UTF-8" standalone="no"?>
<svg
   xmlns:dc="http://purl.org/dc/elements/1.1/"
   xmlns:cc="http://creativecommons.org/ns#"
   xmlns:rdf="http://www.w3.org/1999/02/22-rdf-syntax-ns#"
   xmlns:svg="http://www.w3.org/2000/svg"
   xmlns="http://www.w3.org/2000/svg"
   id="svg19"
   xml:space="preserve"
   viewBox="0 0 1024 768"
   y="0px"
   x="0px"
   version="1.1"><metadata
     id="metadata25"><rdf:RDF><cc:Work
         rdf:about=""><dc:format>image/svg+xml</dc:format><dc:type
           rdf:resource="http://purl.org/dc/dcmitype/StillImage" /></cc:Work></rdf:RDF></metadata><defs
     id="defs23" /><style
     id="style2">
#logo-fade{
opacity: 0;
animation: fadeIn 4s ease-in forwards;
}

@keyframes fadeIn { 0% { opacity:0; } 50% { opacity:0; } 100% { opacity:1; } }
@keyframes fadeOut { from { opacity:1; } to { opacity:0; } }

#outline{
opacity: 1;
stroke-dasharray: 2000;
stroke-dashoffset: 2000;
animation: dash 4s ease-in-out forwards;
}

@keyframes dash {
  0% {
    opacity: 1;
    stroke-dashoffset: 2000;
  }
  50% {
    opacity: 1;
    stroke-dashoffset: 1000;
  }
  100% {
    opacity: 0;
    stroke-dashoffset: 0;
  }
}
</style><path
     stroke-width="4"
     stroke="#027373"
     fill="none"
     d="m256 345.31v8.81h22.32c18.8 0 23.14 5.52 23.14 28.66 0 23.03-5.28 28.9-23.14 28.9h-22.32v8.81h22.32c21.73 0 31.95-11.27 31.95-37.71 0-26.19-8.92-37.47-31.95-37.47h-22.32zm378.71 0v75.18h15.27v-75.18h-15.27zm22.05 0v75.18h15.27v-18.32l7.99-8.11 20.2 26.43h17.63l-27.73-36.42h-0.23l24.43-24.67h-18.79l-23.5 23.73v-37.82h-15.27zm63.35 0v9.4h15.27v-9.4h-15.27zm22.05 0v56.39c0 11.39 7.4 18.79 18.79 18.79h7.05v-15.27h-7.05c-3.52 0-3.52 0-3.52-3.52v-27.02h10.57v-15.28h-10.57v-14.09h-15.27zm-303.69 0.12v15.27h37.24 21.73v-15.27h-58.97zm37.24 15.27l-15.27 15.27v44.52h15.15l0.12-59.79zm-131.17-1.88c-16.92 0-27.49 10.69-27.49 31.01 0 19.5 9.87 31.25 27.49 31.25 13.63 0 23.26-7.52 26.55-20.56h-8.81c-2.82 7.64-7.4 11.51-13.51 11.51h-7.4c-9.75 0-14.8-5.05-15.27-19.85h45.93v-2.35c0-20.32-10.57-31.01-27.49-31.01zm252.22 0c-19.27 0-31.13 11.04-31.13 30.89 0 19.62 11.04 31.49 31.13 31.49 19.26 0 31.13-11.28 31.13-31.49 0-19.15-11.04-30.89-31.13-30.89zm-223.93 0.58l21.14 61.09h16.45l21.15-61.09h-9.4l-18.33 52.87h-3.29l-18.32-52.87h-9.4zm347.28 0v61.09h15.15l0.12-61.09h-15.27zm-173.5 0.88h-0.76c-0.07 0.01-0.3 0.02-0.5 0.03s-0.5 0.03-0.67 0.05c-0.16 0.02-0.47 0.05-0.68 0.08-0.21 0.02-0.57 0.07-0.8 0.11s-0.55 0.1-0.72 0.13-0.5 0.1-0.74 0.15-0.59 0.14-0.78 0.18c-0.19 0.05-0.52 0.14-0.73 0.2s-0.54 0.15-0.74 0.21c-0.19 0.06-0.56 0.18-0.82 0.26-0.26 0.09-0.72 0.25-1.02 0.36-0.31 0.1-0.78 0.29-1.06 0.4s-0.66 0.26-0.86 0.34c-0.19 0.08-0.53 0.23-0.76 0.33-0.22 0.1-0.59 0.26-0.81 0.36-0.21 0.1-0.6 0.29-0.86 0.41l-0.47 0.23-0.25-0.06c-0.14-0.04-0.42-0.1-0.63-0.15s-0.53-0.11-0.71-0.15c-0.19-0.04-0.51-0.1-0.73-0.14-0.21-0.03-0.56-0.09-0.78-0.12-0.21-0.03-0.59-0.08-0.83-0.11-0.23-0.02-0.58-0.06-0.78-0.08-0.19-0.01-0.47-0.03-0.63-0.04s-0.57-0.03-0.92-0.04c-0.36-0.02-0.89-0.02-1.28-0.01-0.36 0-0.82 0.02-1.02 0.03s-0.54 0.03-0.76 0.05c-0.22 0.01-0.52 0.04-0.67 0.06-0.16 0.01-0.46 0.05-0.68 0.07-0.22 0.03-0.57 0.08-0.78 0.11s-0.57 0.09-0.81 0.13c-0.23 0.05-0.6 0.12-0.83 0.17-0.22 0.05-0.61 0.14-0.87 0.2-0.26 0.07-0.65 0.17-0.88 0.23-0.22 0.06-0.6 0.18-0.83 0.25-0.24 0.08-0.61 0.2-0.83 0.28s-0.55 0.2-0.74 0.27c-0.18 0.07-0.48 0.19-0.66 0.26-0.18 0.08-0.48 0.21-0.67 0.29-0.19 0.09-0.53 0.24-0.76 0.35-0.22 0.11-0.58 0.28-0.79 0.4-0.21 0.11-0.54 0.28-0.73 0.39s-0.49 0.28-0.66 0.38-0.43 0.26-0.59 0.36-0.46 0.3-0.67 0.44c-0.2 0.13-0.49 0.33-0.64 0.44s-0.43 0.31-0.61 0.45c-0.19 0.14-0.47 0.36-0.64 0.49-0.16 0.13-0.4 0.32-0.53 0.44-0.14 0.11-0.35 0.29-0.48 0.4s-0.33 0.3-0.45 0.41-0.39 0.36-0.59 0.56c-0.21 0.19-0.5 0.49-0.65 0.65-0.17 0.18-0.3 0.33-0.34 0.4-0.03 0.07-0.08 0.19-0.1 0.27-0.02 0.09-0.04 0.21-0.04 0.3s0.02 0.22 0.03 0.28c0.02 0.07 0.07 0.2 0.11 0.28 0.06 0.11 0.13 0.2 0.21 0.29 0.07 0.07 0.19 0.15 0.25 0.19 0.07 0.04 0.19 0.09 0.26 0.11 0.1 0.03 0.19 0.04 0.32 0.05 0.1 0 0.23-0.01 0.29-0.03 0.06-0.01 0.18-0.06 0.27-0.1l0.16-0.08 0.31-0.31c0.17-0.17 0.45-0.45 0.63-0.62s0.45-0.43 0.61-0.57c0.15-0.14 0.4-0.36 0.54-0.48 0.15-0.12 0.42-0.35 0.62-0.51s0.54-0.42 0.76-0.59c0.22-0.16 0.57-0.41 0.77-0.55s0.5-0.34 0.67-0.44c0.16-0.11 0.47-0.3 0.68-0.42 0.21-0.13 0.54-0.32 0.73-0.43 0.19-0.1 0.52-0.28 0.72-0.38 0.21-0.11 0.54-0.27 0.73-0.36s0.46-0.21 0.59-0.28c0.14-0.06 0.43-0.18 0.65-0.27 0.21-0.09 0.54-0.22 0.73-0.29s0.59-0.21 0.91-0.31c0.31-0.11 0.75-0.25 0.97-0.31s0.56-0.15 0.74-0.2c0.19-0.05 0.56-0.13 0.82-0.19 0.27-0.06 0.65-0.14 0.85-0.18 0.2-0.03 0.47-0.08 0.61-0.1 0.13-0.03 0.37-0.06 0.52-0.08s0.46-0.06 0.69-0.09c0.23-0.02 0.57-0.06 0.76-0.07 0.19-0.02 0.51-0.04 0.7-0.06 0.22-0.01 0.78-0.02 1.48-0.02s1.25 0.01 1.49 0.02c0.21 0.02 0.57 0.04 0.81 0.07 0.24 0.02 0.68 0.06 0.98 0.1s0.56 0.07 0.56 0.08v0.01c0 0.01-0.18 0.11-0.39 0.24-0.21 0.12-0.57 0.33-0.78 0.47-0.22 0.13-0.61 0.37-0.86 0.53-0.26 0.16-0.69 0.44-0.97 0.63-0.28 0.18-0.73 0.48-1 0.66-0.26 0.18-0.68 0.47-0.93 0.64-0.25 0.18-0.7 0.5-1.01 0.72-0.31 0.23-0.79 0.58-1.07 0.8-0.28 0.21-0.75 0.56-1.03 0.79-0.29 0.22-0.77 0.59-1.06 0.83-0.3 0.24-0.77 0.63-1.05 0.86s-0.69 0.58-0.91 0.76c-0.21 0.19-0.6 0.52-0.84 0.74-0.25 0.21-0.68 0.59-0.95 0.83-0.27 0.25-0.6 0.55-0.73 0.67s-0.37 0.34-0.53 0.49-0.37 0.35-0.47 0.44c-0.11 0.1-0.57 0.55-1.04 1-0.46 0.46-1.2 1.19-1.64 1.64-0.43 0.45-0.93 0.97-1.11 1.16s-0.49 0.51-0.68 0.72-0.5 0.55-0.69 0.76c-0.19 0.22-0.51 0.57-0.7 0.79-0.2 0.22-0.55 0.62-0.77 0.89-0.23 0.26-0.61 0.71-0.85 1s-0.58 0.7-0.76 0.93c-0.18 0.22-0.48 0.59-0.66 0.82-0.18 0.22-0.48 0.6-0.66 0.84s-0.51 0.67-0.72 0.96c-0.22 0.28-0.54 0.72-0.72 0.97s-0.47 0.66-0.64 0.9c-0.18 0.25-0.47 0.67-0.65 0.94-0.18 0.26-0.47 0.71-0.65 0.98-0.18 0.28-0.39 0.6-0.47 0.71-0.07 0.12-0.24 0.39-0.37 0.6-0.14 0.21-0.36 0.58-0.5 0.81-0.14 0.24-0.37 0.63-0.52 0.88-0.14 0.25-0.37 0.64-0.5 0.86-0.12 0.23-0.31 0.57-0.41 0.76-0.1 0.18-0.28 0.52-0.4 0.74l-0.42 0.84c-0.12 0.23-0.32 0.63-0.43 0.87-0.12 0.25-0.3 0.64-0.41 0.87-0.1 0.23-0.29 0.66-0.42 0.95-0.12 0.29-0.31 0.75-0.41 1.01-0.1 0.25-0.27 0.69-0.37 0.96s-0.28 0.78-0.4 1.14-0.28 0.85-0.35 1.09-0.18 0.63-0.24 0.86c-0.06 0.24-0.16 0.61-0.21 0.83s-0.13 0.6-0.18 0.83-0.12 0.6-0.16 0.83c-0.03 0.22-0.09 0.56-0.12 0.75-0.02 0.19-0.06 0.51-0.08 0.71s-0.05 0.51-0.06 0.68c-0.02 0.2-0.03 0.64-0.03 1.29 0 0.79 0.01 1.05 0.04 1.33 0.02 0.2 0.05 0.52 0.08 0.72 0.03 0.19 0.08 0.53 0.13 0.74 0.04 0.21 0.11 0.52 0.15 0.68 0.04 0.17 0.14 0.49 0.22 0.73 0.08 0.23 0.19 0.54 0.25 0.68s0.18 0.4 0.26 0.57c0.09 0.16 0.19 0.36 0.23 0.44 0.05 0.07 0.13 0.21 0.19 0.31 0.06 0.09 0.17 0.27 0.25 0.38s0.22 0.31 0.32 0.43 0.28 0.33 0.4 0.46c0.12 0.14 0.32 0.34 0.44 0.45s0.29 0.27 0.38 0.34c0.09 0.08 0.26 0.21 0.37 0.29 0.1 0.08 0.3 0.22 0.44 0.31 0.13 0.08 0.35 0.22 0.48 0.29 0.12 0.07 0.37 0.2 0.54 0.28 0.16 0.08 0.43 0.2 0.59 0.26 0.16 0.07 0.41 0.16 0.56 0.21s0.41 0.13 0.58 0.17c0.17 0.05 0.45 0.12 0.62 0.16 0.17 0.03 0.41 0.08 0.54 0.1 0.12 0.02 0.36 0.06 0.53 0.08s0.46 0.05 0.66 0.07c0.19 0.01 0.62 0.03 0.94 0.04 0.36 0 0.79 0 1.06-0.01 0.26-0.01 0.62-0.04 0.8-0.05 0.19-0.02 0.52-0.05 0.74-0.08 0.21-0.03 0.59-0.08 0.82-0.12 0.24-0.03 0.62-0.1 0.83-0.14 0.22-0.05 0.55-0.11 0.73-0.16 0.19-0.04 0.52-0.12 0.73-0.17s0.54-0.14 0.73-0.19c0.19-0.06 0.52-0.15 0.75-0.22 0.22-0.07 0.55-0.17 0.72-0.23 0.18-0.06 0.46-0.15 0.64-0.21 0.17-0.07 0.49-0.18 0.7-0.26s0.52-0.19 0.69-0.26c0.16-0.06 0.46-0.19 0.67-0.27s0.61-0.25 0.89-0.37c0.28-0.13 0.75-0.34 1.04-0.48 0.3-0.13 0.76-0.35 1.03-0.48l0.49-0.24 0.22 0.06c0.12 0.03 0.4 0.09 0.61 0.14 0.22 0.05 0.59 0.12 0.84 0.17 0.24 0.05 0.63 0.12 0.87 0.15 0.24 0.04 0.61 0.09 0.81 0.12 0.21 0.03 0.55 0.07 0.76 0.09s0.57 0.05 0.78 0.06c0.22 0.02 0.59 0.04 0.82 0.05 0.24 0.01 0.78 0.02 1.22 0.02 0.43 0 0.98-0.01 1.21-0.02s0.61-0.03 0.83-0.05c0.22-0.01 0.61-0.04 0.87-0.07s0.66-0.08 0.9-0.11c0.23-0.03 0.61-0.09 0.83-0.12 0.22-0.04 0.56-0.1 0.75-0.14s0.5-0.1 0.69-0.14c0.2-0.05 0.54-0.13 0.77-0.18 0.23-0.06 0.58-0.16 0.79-0.22 0.2-0.05 0.5-0.14 0.66-0.19s0.46-0.15 0.66-0.22c0.21-0.07 0.56-0.19 0.78-0.27 0.23-0.08 0.54-0.2 0.7-0.27 0.16-0.06 0.45-0.18 0.64-0.27 0.2-0.08 0.5-0.21 0.67-0.29s0.58-0.28 0.91-0.44c0.32-0.17 0.78-0.41 1.01-0.54 0.24-0.13 0.56-0.32 0.72-0.41 0.16-0.1 0.44-0.27 0.62-0.39 0.19-0.11 0.5-0.32 0.7-0.45 0.19-0.13 0.48-0.33 0.62-0.44 0.15-0.1 0.41-0.29 0.58-0.42s0.44-0.33 0.59-0.45 0.41-0.33 0.57-0.47c0.16-0.13 0.43-0.36 0.6-0.52 0.18-0.15 0.48-0.43 0.67-0.6 0.19-0.18 0.33-0.33 0.32-0.34 0-0.01-0.41-0.29-0.91-0.61-0.49-0.33-1.05-0.7-1.24-0.82s-0.49-0.31-0.67-0.42c-0.17-0.1-0.47-0.27-0.65-0.38-0.19-0.11-0.48-0.27-0.66-0.37s-0.51-0.27-0.73-0.39c-0.23-0.11-0.59-0.29-0.81-0.39-0.21-0.11-0.58-0.28-0.82-0.38l-0.42-0.19-0.09 0.16c-0.06 0.08-0.24 0.36-0.4 0.61-0.17 0.25-0.42 0.62-0.56 0.82s-0.41 0.57-0.59 0.82c-0.19 0.25-0.44 0.57-0.55 0.72-0.12 0.15-0.31 0.39-0.43 0.53-0.11 0.14-0.36 0.44-0.55 0.66-0.19 0.21-0.43 0.49-0.55 0.62-0.11 0.13-0.37 0.41-0.58 0.63-0.2 0.21-0.61 0.63-0.9 0.92-0.3 0.29-0.67 0.65-0.83 0.8s-0.44 0.41-0.63 0.57c-0.18 0.17-0.44 0.39-0.57 0.51-0.13 0.11-0.29 0.23-0.35 0.26s-0.15 0.07-0.2 0.09c-0.05 0.01-0.15 0.03-0.23 0.05-0.09 0.01-0.18 0.01-0.28 0-0.09-0.01-0.21-0.04-0.27-0.06s-0.15-0.07-0.21-0.1c-0.06-0.04-0.17-0.12-0.24-0.19-0.09-0.09-0.15-0.17-0.2-0.28-0.05-0.09-0.1-0.23-0.12-0.31-0.02-0.11-0.03-0.2-0.02-0.32 0.01-0.13 0.03-0.22 0.07-0.34 0.03-0.08 0.09-0.2 0.14-0.27 0.05-0.08 0.19-0.22 0.46-0.45 0.21-0.18 0.47-0.42 0.59-0.52 0.12-0.11 0.4-0.37 0.62-0.58 0.23-0.22 0.61-0.59 0.84-0.82 0.24-0.24 0.57-0.58 0.73-0.76 0.17-0.18 0.46-0.5 0.64-0.7 0.18-0.21 0.44-0.51 0.57-0.67s0.37-0.44 0.52-0.63 0.39-0.51 0.55-0.72c0.15-0.2 0.37-0.51 0.5-0.68 0.12-0.18 0.36-0.52 0.52-0.77 0.16-0.24 0.3-0.45 0.3-0.46s-0.13-0.06-0.29-0.11c-0.17-0.05-0.41-0.13-0.54-0.17s-0.37-0.11-0.54-0.16c-0.16-0.05-0.52-0.15-0.8-0.22-0.28-0.08-0.71-0.18-0.97-0.24s-0.62-0.14-0.8-0.18c-0.18-0.03-0.55-0.1-0.81-0.15-0.27-0.05-0.72-0.12-1.01-0.16-0.29-0.05-0.68-0.1-0.87-0.12-0.18-0.02-0.51-0.05-0.73-0.07-0.22-0.03-0.59-0.06-0.82-0.07-0.23-0.02-0.57-0.04-0.74-0.04l-0.31-0.02-0.01 5.08v5.07l-0.04 0.13c-0.02 0.07-0.07 0.18-0.11 0.25s-0.11 0.17-0.16 0.22c-0.05 0.06-0.14 0.14-0.22 0.19-0.07 0.05-0.19 0.11-0.27 0.14-0.11 0.04-0.19 0.05-0.35 0.06-0.14 0.01-0.23 0-0.32-0.02-0.07-0.02-0.19-0.07-0.27-0.11-0.11-0.05-0.19-0.11-0.3-0.21-0.11-0.12-0.16-0.18-0.22-0.31-0.05-0.09-0.09-0.22-0.11-0.3-0.02-0.11-0.03-0.82-0.03-5.15v-5.02l-0.3 0.01c-0.17 0.01-0.45 0.02-0.62 0.03-0.18 0.02-0.48 0.04-0.67 0.06-0.19 0.01-0.58 0.05-0.87 0.08-0.28 0.03-0.73 0.09-0.99 0.13s-0.62 0.09-0.81 0.12c-0.18 0.04-0.54 0.1-0.79 0.15s-0.66 0.13-0.92 0.19-0.64 0.15-0.84 0.2-0.51 0.14-0.69 0.18c-0.18 0.05-0.49 0.14-0.69 0.21-0.21 0.06-0.51 0.15-0.67 0.2s-0.29 0.1-0.29 0.11 0.12 0.19 0.27 0.41c0.14 0.22 0.39 0.58 0.54 0.79s0.38 0.52 0.51 0.69c0.12 0.17 0.38 0.5 0.57 0.74 0.19 0.23 0.45 0.55 0.58 0.71 0.14 0.16 0.38 0.43 0.53 0.6 0.16 0.18 0.41 0.46 0.56 0.62 0.16 0.16 0.45 0.47 0.66 0.68 0.2 0.21 0.58 0.58 0.83 0.81 0.25 0.24 0.54 0.51 0.65 0.61s0.34 0.31 0.51 0.46 0.35 0.31 0.39 0.36c0.05 0.05 0.11 0.15 0.15 0.22 0.04 0.08 0.08 0.2 0.1 0.28 0.02 0.11 0.03 0.2 0.02 0.34-0.01 0.1-0.03 0.23-0.05 0.29s-0.05 0.14-0.08 0.19c-0.02 0.05-0.08 0.14-0.13 0.2s-0.13 0.14-0.18 0.18c-0.06 0.04-0.15 0.1-0.22 0.14-0.06 0.03-0.17 0.07-0.24 0.09-0.09 0.02-0.18 0.03-0.34 0.02s-0.24-0.02-0.34-0.06c-0.08-0.02-0.19-0.07-0.24-0.11-0.06-0.04-0.26-0.2-0.44-0.36-0.18-0.15-0.42-0.36-0.53-0.46-0.11-0.11-0.38-0.35-0.59-0.56-0.22-0.2-0.67-0.64-0.99-0.97-0.33-0.33-0.78-0.8-1-1.04s-0.52-0.58-0.67-0.76c-0.16-0.18-0.41-0.48-0.57-0.67-0.15-0.19-0.41-0.51-0.58-0.72-0.16-0.22-0.37-0.49-0.46-0.61s-0.26-0.36-0.39-0.53c-0.12-0.17-0.34-0.5-0.5-0.72-0.15-0.23-0.36-0.54-0.46-0.7-0.1-0.17-0.19-0.3-0.19-0.3s-0.15 0.07-0.33 0.14c-0.18 0.08-0.47 0.21-0.64 0.29s-0.53 0.25-0.81 0.39c-0.29 0.14-0.69 0.35-0.9 0.46-0.21 0.12-0.58 0.32-0.82 0.46s-0.5 0.27-0.56 0.29c-0.07 0.02-0.2 0.04-0.31 0.05-0.14 0.01-0.22 0-0.33-0.03-0.08-0.01-0.2-0.06-0.27-0.09-0.07-0.04-0.18-0.11-0.24-0.17-0.06-0.05-0.16-0.15-0.21-0.23s-0.12-0.21-0.14-0.28c-0.03-0.07-0.05-0.18-0.06-0.25-0.01-0.06-0.01-0.19 0-0.27 0.01-0.1 0.04-0.22 0.08-0.31 0.03-0.08 0.1-0.21 0.15-0.28s0.14-0.16 0.19-0.2c0.06-0.05 0.26-0.17 0.45-0.28 0.2-0.12 0.52-0.29 0.71-0.4 0.2-0.11 0.64-0.34 0.98-0.51 0.35-0.17 0.79-0.39 0.99-0.48 0.19-0.09 0.47-0.21 0.61-0.28 0.14-0.06 0.25-0.11 0.25-0.12s-0.12-0.27-0.27-0.57c-0.16-0.31-0.36-0.72-0.45-0.92s-0.24-0.53-0.32-0.72c-0.09-0.2-0.23-0.53-0.31-0.75-0.08-0.21-0.19-0.49-0.24-0.61-0.05-0.13-0.15-0.41-0.23-0.64-0.08-0.22-0.21-0.62-0.3-0.89-0.08-0.27-0.2-0.67-0.27-0.9-0.06-0.22-0.17-0.65-0.25-0.94-0.07-0.3-0.17-0.73-0.22-0.95-0.04-0.22-0.12-0.59-0.16-0.82s-0.11-0.61-0.14-0.85c-0.04-0.25-0.1-0.62-0.12-0.83-0.03-0.21-0.07-0.56-0.09-0.78s-0.05-0.58-0.06-0.79c-0.02-0.22-0.04-0.52-0.05-0.66l-0.01-0.26-0.68-0.01c-0.54-0.01-0.69-0.02-0.78-0.04-0.06-0.02-0.17-0.07-0.25-0.11-0.1-0.05-0.19-0.11-0.29-0.21-0.11-0.12-0.17-0.19-0.23-0.31-0.05-0.11-0.09-0.22-0.11-0.33s-0.02-0.21-0.01-0.3c0-0.07 0.03-0.2 0.06-0.28 0.02-0.08 0.08-0.2 0.12-0.27 0.04-0.06 0.13-0.16 0.18-0.22 0.06-0.05 0.16-0.13 0.23-0.17 0.06-0.04 0.17-0.09 0.24-0.11l0.13-0.05h0.69l0.7-0.01v-0.1c0-0.05 0.01-0.27 0.02-0.47 0.02-0.21 0.04-0.54 0.05-0.74 0.02-0.2 0.05-0.44 0.06-0.52 0.02-0.09 0.06-0.22 0.1-0.29 0.03-0.08 0.1-0.18 0.15-0.24 0.04-0.05 0.12-0.13 0.17-0.18 0.06-0.04 0.16-0.1 0.23-0.14 0.08-0.04 0.21-0.08 0.29-0.1 0.08-0.01 0.19-0.03 0.24-0.03 0.04 0 0.15 0.02 0.23 0.03 0.08 0.02 0.19 0.05 0.25 0.08 0.06 0.02 0.14 0.07 0.19 0.1 0.04 0.03 0.12 0.1 0.17 0.15s0.13 0.14 0.16 0.2c0.04 0.05 0.09 0.16 0.12 0.22 0.02 0.07 0.05 0.19 0.06 0.26 0.02 0.11 0.02 0.21-0.01 0.48-0.01 0.19-0.04 0.55-0.06 0.8-0.01 0.26-0.03 0.47-0.03 0.48s3.1 0.01 6.89 0.01h6.89v-10.06h-0.16c-0.09 0-0.38-0.01-0.65-0.03-0.27-0.01-0.66-0.04-0.86-0.05-0.2-0.02-0.49-0.05-0.64-0.06-0.16-0.02-0.47-0.05-0.7-0.08-0.22-0.03-0.58-0.07-0.79-0.1-0.2-0.03-0.43-0.08-0.49-0.1s-0.16-0.07-0.21-0.1c-0.06-0.04-0.16-0.12-0.23-0.18-0.06-0.06-0.15-0.17-0.19-0.24s-0.09-0.18-0.11-0.25-0.04-0.2-0.05-0.29c-0.01-0.11 0-0.21 0.02-0.31 0.02-0.08 0.06-0.21 0.11-0.3 0.05-0.12 0.11-0.2 0.21-0.29 0.07-0.07 0.17-0.16 0.23-0.19 0.06-0.04 0.16-0.08 0.22-0.11 0.06-0.02 0.18-0.05 0.26-0.06l0.15-0.02 0.51 0.07c0.28 0.04 0.62 0.08 0.75 0.1s0.38 0.04 0.54 0.06 0.4 0.04 0.52 0.05 0.35 0.03 0.51 0.04 0.45 0.02 0.65 0.03c0.21 0.01 0.38 0.02 0.39 0.02 0 0 0.01-1.08 0.01-2.41 0-1.65 0.01-2.45 0.02-2.53 0.01-0.06 0.04-0.17 0.07-0.24s0.08-0.17 0.12-0.23 0.13-0.16 0.19-0.22c0.07-0.06 0.19-0.13 0.26-0.17 0.08-0.04 0.19-0.08 0.26-0.1 0.06-0.02 0.19-0.03 0.28-0.03 0.1 0 0.23 0.01 0.29 0.03 0.07 0.02 0.18 0.06 0.26 0.1 0.11 0.05 0.19 0.11 0.29 0.22 0.12 0.11 0.17 0.18 0.23 0.31 0.05 0.1 0.09 0.21 0.11 0.31 0.02 0.13 0.03 0.57 0.03 2.56v2.41l0.22-0.02c0.13 0 0.43-0.02 0.67-0.04 0.25-0.01 0.64-0.04 0.87-0.06s0.61-0.06 0.84-0.09 0.57-0.07 0.75-0.1c0.19-0.02 0.47-0.06 0.64-0.09 0.16-0.03 0.51-0.09 0.77-0.14s0.68-0.13 0.95-0.19c0.26-0.06 0.68-0.15 0.93-0.22 0.25-0.06 0.61-0.15 0.79-0.2s0.47-0.14 0.64-0.19c0.18-0.05 0.47-0.14 0.66-0.2 0.25-0.08 0.34-0.12 0.33-0.14 0-0.01-0.11-0.18-0.24-0.37s-0.33-0.48-0.45-0.65c-0.11-0.17-0.34-0.48-0.5-0.69s-0.41-0.53-0.55-0.71-0.39-0.48-0.55-0.67c-0.15-0.19-0.38-0.46-0.5-0.6-0.13-0.14-0.37-0.4-0.54-0.59-0.17-0.18-0.7-0.73-1.18-1.2l-0.87-0.87-0.07-0.14c-0.04-0.08-0.08-0.19-0.1-0.26s-0.03-0.2-0.03-0.29c0-0.11 0.01-0.23 0.03-0.3s0.06-0.18 0.1-0.25c0.03-0.07 0.12-0.18 0.19-0.27 0.07-0.07 0.18-0.17 0.24-0.2 0.06-0.04 0.18-0.09 0.26-0.12 0.13-0.05 0.19-0.05 0.37-0.05s0.24 0 0.37 0.05c0.09 0.03 0.22 0.09 0.3 0.14 0.1 0.07 0.37 0.32 0.84 0.78 0.38 0.38 0.85 0.86 1.05 1.07 0.19 0.21 0.44 0.48 0.54 0.59 0.11 0.12 0.31 0.34 0.44 0.49 0.13 0.16 0.37 0.43 0.52 0.62 0.15 0.18 0.39 0.48 0.53 0.65 0.14 0.18 0.37 0.48 0.51 0.67s0.37 0.5 0.5 0.68c0.13 0.19 0.36 0.51 0.5 0.73 0.15 0.21 0.34 0.5 0.43 0.64 0.09 0.15 0.18 0.27 0.19 0.27s0.15-0.06 0.32-0.13c0.16-0.08 0.39-0.17 0.49-0.22 0.11-0.05 0.39-0.18 0.63-0.29 0.24-0.12 0.59-0.29 0.77-0.39 0.19-0.09 0.49-0.25 0.67-0.35 0.19-0.1 0.46-0.26 0.61-0.34 0.15-0.09 0.41-0.24 0.58-0.34s0.43-0.25 0.57-0.34 0.74-0.49 1.33-0.88 1.08-0.72 1.08-0.73c0 0-0.17-0.16-0.36-0.35-0.2-0.18-0.45-0.41-0.56-0.51-0.11-0.09-0.32-0.28-0.48-0.42-0.16-0.13-0.44-0.36-0.62-0.51-0.18-0.14-0.47-0.37-0.64-0.5-0.18-0.14-0.48-0.36-0.68-0.5-0.19-0.14-0.57-0.4-0.83-0.57-0.25-0.17-0.6-0.39-0.76-0.49-0.17-0.11-0.43-0.26-0.59-0.36-0.16-0.09-0.46-0.26-0.66-0.37s-0.63-0.33-0.95-0.49c-0.33-0.16-0.76-0.37-0.96-0.46-0.21-0.1-0.53-0.23-0.71-0.31-0.18-0.07-0.33-0.14-0.34-0.15-0.01 0 0.15-0.08 0.36-0.17 0.2-0.08 0.6-0.25 0.87-0.36 0.27-0.1 0.69-0.27 0.93-0.35 0.24-0.09 0.65-0.24 0.92-0.33 0.26-0.09 0.66-0.21 0.88-0.28s0.55-0.17 0.74-0.22c0.19-0.06 0.51-0.14 0.72-0.19 0.2-0.06 0.6-0.15 0.87-0.21s0.73-0.14 1-0.19c0.28-0.05 0.69-0.11 0.9-0.14 0.22-0.02 0.56-0.06 0.75-0.08 0.28-0.02 0.56-0.03 1.26-0.03 0.59 0 0.97 0.01 1.13 0.02 0.13 0.02 0.38 0.04 0.54 0.07 0.17 0.02 0.47 0.07 0.68 0.11 0.2 0.04 0.51 0.12 0.68 0.16 0.16 0.05 0.41 0.13 0.54 0.18s0.32 0.12 0.42 0.16c0.1 0.05 0.28 0.13 0.4 0.19 0.13 0.07 0.33 0.18 0.45 0.25s0.31 0.2 0.43 0.29c0.13 0.09 0.3 0.23 0.39 0.3 0.09 0.08 0.27 0.25 0.39 0.37 0.12 0.13 0.28 0.3 0.35 0.38s0.18 0.23 0.26 0.34c0.07 0.1 0.2 0.3 0.28 0.44 0.09 0.13 0.22 0.38 0.29 0.53 0.08 0.16 0.17 0.37 0.21 0.48 0.04 0.1 0.11 0.29 0.16 0.43s0.12 0.38 0.16 0.55c0.04 0.16 0.1 0.41 0.12 0.54 0.03 0.13 0.07 0.36 0.09 0.52 0.02 0.15 0.05 0.41 0.07 0.58 0.02 0.16 0.04 0.59 0.04 0.96 0.01 0.42 0 0.81-0.01 1.06-0.01 0.22-0.04 0.57-0.06 0.78s-0.07 0.59-0.1 0.85c-0.04 0.25-0.1 0.63-0.14 0.83s-0.1 0.51-0.14 0.68c-0.03 0.17-0.1 0.48-0.15 0.67l-0.18 0.72c-0.06 0.19-0.16 0.55-0.23 0.8-0.08 0.24-0.22 0.69-0.33 1.01-0.1 0.31-0.27 0.79-0.38 1.06-0.1 0.28-0.25 0.67-0.33 0.88-0.09 0.21-0.23 0.56-0.32 0.77-0.09 0.22-0.18 0.41-0.18 0.41-0.01 0.01-0.08-0.13-0.15-0.3-0.07-0.18-0.2-0.49-0.29-0.68-0.09-0.2-0.23-0.51-0.32-0.7-0.08-0.18-0.25-0.52-0.37-0.75-0.11-0.23-0.32-0.61-0.45-0.85s-0.34-0.6-0.47-0.82c-0.13-0.21-0.32-0.51-0.43-0.68-0.1-0.16-0.29-0.46-0.42-0.65s-0.32-0.46-0.42-0.59c-0.1-0.14-0.28-0.39-0.4-0.55-0.13-0.17-0.34-0.44-0.47-0.6s-0.34-0.43-0.47-0.58c-0.13-0.16-0.25-0.28-0.26-0.28s-0.56 0.36-1.23 0.8c-0.66 0.44-1.4 0.93-1.64 1.08s-0.61 0.37-0.83 0.5c-0.21 0.12-0.55 0.32-0.74 0.42-0.19 0.11-0.55 0.3-0.81 0.44-0.25 0.13-0.66 0.33-0.91 0.45-0.24 0.12-0.55 0.27-0.68 0.32-0.13 0.06-0.31 0.14-0.39 0.18-0.09 0.04-0.18 0.08-0.22 0.09l-0.06 0.03 0.29 0.58c0.17 0.32 0.38 0.75 0.47 0.95s0.27 0.61 0.39 0.9c0.13 0.29 0.31 0.72 0.4 0.95 0.09 0.24 0.23 0.63 0.32 0.89 0.09 0.25 0.23 0.65 0.3 0.89 0.08 0.24 0.2 0.64 0.28 0.91 0.07 0.26 0.18 0.67 0.25 0.92 0.06 0.25 0.14 0.61 0.19 0.8 0.04 0.2 0.11 0.53 0.15 0.75 0.04 0.21 0.11 0.6 0.16 0.86 0.04 0.26 0.1 0.67 0.13 0.91 0.03 0.23 0.08 0.63 0.11 0.88 0.02 0.25 0.06 0.65 0.07 0.89 0.02 0.24 0.04 0.52 0.05 0.61l0.01 0.18h10.77v-0.12c-0.01-0.07-0.02-0.32-0.04-0.57-0.01-0.25-0.04-0.64-0.06-0.86s-0.06-0.58-0.09-0.8-0.08-0.59-0.12-0.84c-0.03-0.24-0.1-0.62-0.14-0.85-0.04-0.22-0.1-0.53-0.13-0.68-0.04-0.15-0.11-0.45-0.16-0.67l-0.09-0.39 0.17-0.34c0.09-0.19 0.27-0.56 0.39-0.82 0.13-0.26 0.29-0.61 0.35-0.76 0.07-0.16 0.21-0.48 0.31-0.71s0.28-0.65 0.39-0.92 0.29-0.74 0.41-1.05c0.11-0.32 0.28-0.79 0.38-1.06 0.09-0.27 0.21-0.66 0.27-0.86 0.07-0.2 0.17-0.54 0.23-0.74 0.06-0.21 0.16-0.58 0.22-0.82 0.06-0.25 0.14-0.58 0.18-0.75s0.11-0.48 0.15-0.69c0.04-0.2 0.1-0.52 0.13-0.7s0.08-0.48 0.1-0.67c0.03-0.18 0.07-0.49 0.09-0.68s0.05-0.51 0.07-0.72 0.03-0.7 0.04-1.1c0.01-0.46 0-0.87-0.01-1.12-0.02-0.21-0.04-0.52-0.05-0.67-0.02-0.16-0.05-0.43-0.08-0.62-0.03-0.18-0.08-0.49-0.11-0.67-0.04-0.19-0.11-0.47-0.15-0.63s-0.12-0.43-0.17-0.6c-0.06-0.17-0.16-0.46-0.24-0.64-0.07-0.19-0.21-0.5-0.31-0.71-0.1-0.2-0.22-0.44-0.28-0.53-0.05-0.09-0.15-0.26-0.22-0.36-0.06-0.1-0.19-0.29-0.28-0.41-0.09-0.13-0.26-0.35-0.38-0.49-0.11-0.13-0.34-0.38-0.5-0.54-0.16-0.15-0.39-0.37-0.51-0.47s-0.28-0.23-0.35-0.28c-0.06-0.05-0.24-0.18-0.39-0.28s-0.4-0.26-0.55-0.34c-0.15-0.09-0.42-0.23-0.59-0.31s-0.45-0.21-0.62-0.28c-0.18-0.07-0.47-0.17-0.65-0.23s-0.46-0.14-0.63-0.18c-0.17-0.05-0.46-0.11-0.65-0.15-0.18-0.03-0.46-0.08-0.61-0.1-0.14-0.03-0.39-0.06-0.55-0.07-0.15-0.02-0.4-0.04-0.54-0.05-0.15-0.01-0.55-0.02-0.9-0.03zm-205.24 7.35h6.34c8.93 0 13.87 4.23 15.04 16.33h-36.42c1.18-12.1 6.11-16.33 15.04-16.33zm251.86 5.75h7.05c7.99 0 13.51 6.11 13.51 16.33s-5.52 16.33-13.51 16.33h-7.05c-7.99 0-13.51-6.11-13.51-16.33s5.52-16.33 13.51-16.33zm-55.96 4.85c-0.01 0-0.19 0.06-0.4 0.13-0.21 0.08-0.54 0.18-0.73 0.24s-0.54 0.17-0.78 0.24-0.69 0.19-0.99 0.27c-0.31 0.07-0.76 0.18-1 0.23-0.24 0.06-0.63 0.14-0.88 0.19s-0.65 0.12-0.9 0.16c-0.24 0.04-0.65 0.11-0.91 0.15-0.26 0.03-0.71 0.09-1 0.12-0.28 0.03-0.67 0.07-0.85 0.09-0.19 0.02-0.53 0.04-0.76 0.06-0.22 0.01-0.57 0.03-0.77 0.04l-0.36 0.01v10.05h13.76v-0.08c0-0.04-0.02-0.26-0.03-0.48-0.02-0.21-0.05-0.53-0.06-0.7-0.02-0.17-0.05-0.42-0.06-0.55-0.02-0.13-0.05-0.4-0.08-0.59s-0.08-0.52-0.11-0.75c-0.04-0.22-0.1-0.55-0.14-0.73-0.03-0.18-0.1-0.49-0.14-0.68-0.05-0.2-0.13-0.56-0.2-0.81-0.06-0.25-0.17-0.65-0.24-0.89s-0.21-0.7-0.32-1.03-0.27-0.78-0.35-0.99c-0.08-0.22-0.2-0.52-0.26-0.66-0.05-0.14-0.16-0.4-0.24-0.57-0.07-0.18-0.2-0.48-0.29-0.68s-0.28-0.58-0.41-0.85c-0.14-0.27-0.3-0.6-0.37-0.72-0.06-0.12-0.12-0.22-0.13-0.22zm3.44 14.39h-6.89-6.88v10.03l0.29 0.02c0.17 0.01 0.5 0.02 0.75 0.04 0.25 0.01 0.64 0.04 0.88 0.07 0.23 0.02 0.62 0.05 0.85 0.08 0.24 0.03 0.62 0.08 0.85 0.11s0.65 0.09 0.93 0.14 0.71 0.13 0.96 0.18c0.25 0.04 0.65 0.13 0.89 0.18 0.23 0.05 0.65 0.15 0.92 0.22s0.71 0.18 0.96 0.26c0.26 0.07 0.66 0.19 0.88 0.26s0.6 0.19 0.83 0.27 0.44 0.15 0.46 0.15c0.02 0.01 0.09-0.1 0.35-0.64 0.18-0.35 0.41-0.84 0.52-1.07 0.1-0.23 0.26-0.6 0.36-0.83 0.09-0.22 0.25-0.63 0.35-0.9s0.26-0.71 0.35-0.98 0.22-0.68 0.29-0.92 0.18-0.64 0.24-0.88 0.15-0.61 0.2-0.82c0.05-0.2 0.12-0.55 0.16-0.77 0.05-0.22 0.11-0.58 0.15-0.8 0.03-0.22 0.09-0.56 0.11-0.76 0.03-0.2 0.07-0.51 0.09-0.7s0.05-0.5 0.07-0.69c0.01-0.18 0.04-0.49 0.05-0.68s0.02-0.4 0.02-0.46l0.01-0.11zm-23.06 0h-6.89l0.01 0.09c0 0.05 0.01 0.25 0.02 0.44 0.02 0.19 0.04 0.53 0.06 0.76s0.06 0.56 0.08 0.74 0.07 0.51 0.1 0.72c0.03 0.22 0.09 0.59 0.13 0.83s0.12 0.64 0.18 0.89c0.05 0.25 0.14 0.66 0.21 0.92 0.06 0.25 0.15 0.6 0.2 0.77s0.15 0.5 0.22 0.74 0.19 0.61 0.27 0.82c0.07 0.21 0.18 0.52 0.25 0.69 0.06 0.17 0.17 0.46 0.25 0.65 0.07 0.18 0.18 0.46 0.25 0.61 0.07 0.16 0.18 0.42 0.26 0.59 0.08 0.18 0.23 0.5 0.34 0.73 0.11 0.22 0.27 0.54 0.36 0.71 0.09 0.16 0.16 0.3 0.17 0.3 0 0.01 0.22-0.07 0.49-0.16s0.62-0.2 0.78-0.25 0.5-0.15 0.75-0.22 0.6-0.17 0.76-0.21c0.17-0.04 0.48-0.12 0.71-0.17 0.22-0.06 0.61-0.14 0.86-0.2 0.26-0.05 0.6-0.12 0.77-0.15s0.49-0.09 0.72-0.13c0.22-0.03 0.58-0.09 0.81-0.12 0.22-0.04 0.59-0.08 0.81-0.11 0.23-0.03 0.55-0.06 0.71-0.08 0.16-0.01 0.51-0.04 0.78-0.06 0.27-0.03 0.71-0.05 0.97-0.06l0.49-0.03v-10.05h-6.88zm25.46 0v0.11c0 0.06-0.02 0.33-0.03 0.59-0.02 0.26-0.05 0.66-0.07 0.9s-0.06 0.58-0.08 0.76-0.07 0.57-0.11 0.86c-0.05 0.29-0.12 0.75-0.17 1.01-0.05 0.27-0.13 0.68-0.18 0.93-0.05 0.24-0.15 0.67-0.22 0.94-0.07 0.28-0.17 0.64-0.21 0.82-0.05 0.17-0.15 0.5-0.22 0.72-0.06 0.22-0.19 0.61-0.28 0.87-0.08 0.25-0.22 0.65-0.31 0.88-0.08 0.22-0.22 0.56-0.29 0.76-0.08 0.19-0.21 0.5-0.3 0.7-0.08 0.19-0.21 0.47-0.27 0.62-0.07 0.14-0.25 0.52-0.41 0.85-0.16 0.32-0.29 0.59-0.28 0.6 0 0 0.16 0.07 0.34 0.15 0.19 0.09 0.56 0.26 0.83 0.39s0.7 0.34 0.94 0.47c0.25 0.13 0.62 0.33 0.82 0.44s0.53 0.29 0.72 0.41c0.19 0.11 0.49 0.29 0.67 0.4 0.17 0.11 0.44 0.28 0.59 0.37 0.15 0.1 0.76 0.5 1.37 0.91 0.6 0.4 1.1 0.72 1.11 0.72 0.01-0.01 0.13-0.14 0.26-0.3 0.13-0.15 0.32-0.39 0.43-0.52s0.3-0.39 0.43-0.56c0.14-0.18 0.35-0.47 0.49-0.65 0.13-0.19 0.36-0.52 0.51-0.75 0.15-0.22 0.37-0.57 0.49-0.76 0.12-0.2 0.29-0.48 0.38-0.63 0.09-0.16 0.23-0.4 0.31-0.54 0.08-0.15 0.25-0.45 0.36-0.67 0.12-0.23 0.32-0.62 0.44-0.87 0.12-0.26 0.29-0.63 0.38-0.84 0.1-0.22 0.24-0.56 0.33-0.78s0.22-0.55 0.29-0.73c0.06-0.19 0.18-0.51 0.25-0.72 0.07-0.2 0.19-0.58 0.27-0.84 0.08-0.25 0.19-0.65 0.26-0.89 0.06-0.24 0.16-0.62 0.21-0.84 0.05-0.23 0.14-0.62 0.19-0.88 0.06-0.26 0.13-0.68 0.18-0.93 0.04-0.25 0.1-0.62 0.12-0.82 0.03-0.19 0.07-0.51 0.09-0.69 0.02-0.19 0.05-0.49 0.07-0.67 0.01-0.18 0.04-0.54 0.06-0.8 0.01-0.26 0.02-0.48 0.02-0.48 0-0.01-2.42-0.02-5.39-0.02h-5.39zm-43.58 9.3c0 0.01 0.06 0.15 0.13 0.3 0.06 0.16 0.18 0.44 0.26 0.62s0.24 0.52 0.35 0.75c0.11 0.24 0.26 0.54 0.33 0.67s0.19 0.36 0.27 0.51 0.23 0.42 0.34 0.61c0.1 0.18 0.27 0.47 0.38 0.65 0.1 0.17 0.29 0.47 0.42 0.67s0.35 0.53 0.5 0.74c0.14 0.2 0.38 0.54 0.54 0.75 0.15 0.21 0.39 0.52 0.54 0.7 0.14 0.18 0.37 0.46 0.5 0.62s0.35 0.41 0.48 0.56 0.34 0.38 0.46 0.51c0.13 0.13 0.36 0.38 0.52 0.54 0.17 0.17 0.46 0.46 0.65 0.64s0.49 0.46 0.66 0.61 0.46 0.41 0.65 0.57 0.5 0.41 0.68 0.55c0.18 0.15 0.49 0.39 0.7 0.54s0.56 0.41 0.79 0.57 0.57 0.39 0.77 0.52c0.2 0.12 0.55 0.34 0.78 0.48s0.6 0.35 0.83 0.48c0.22 0.12 0.71 0.38 1.09 0.56 0.37 0.19 0.89 0.44 1.14 0.55 0.26 0.11 0.61 0.26 0.78 0.34 0.18 0.07 0.33 0.13 0.34 0.14s-0.15 0.08-0.35 0.17c-0.2 0.08-0.57 0.24-0.82 0.34s-0.62 0.25-0.82 0.32-0.58 0.21-0.84 0.31c-0.27 0.09-0.73 0.24-1.02 0.33s-0.73 0.23-0.98 0.3c-0.24 0.06-0.64 0.17-0.87 0.22-0.24 0.06-0.57 0.14-0.75 0.17-0.17 0.04-0.48 0.1-0.69 0.14s-0.58 0.1-0.84 0.14c-0.25 0.03-0.59 0.07-0.76 0.09-0.16 0.02-0.42 0.04-0.57 0.05-0.14 0.01-0.5 0.03-0.8 0.03-0.31 0.01-0.69 0-0.93-0.01-0.22-0.01-0.52-0.04-0.67-0.05-0.14-0.02-0.38-0.05-0.53-0.07s-0.37-0.06-0.5-0.09c-0.12-0.02-0.33-0.07-0.45-0.1s-0.35-0.09-0.5-0.14-0.38-0.13-0.5-0.18-0.37-0.16-0.55-0.25-0.42-0.22-0.53-0.29c-0.12-0.07-0.29-0.19-0.38-0.25-0.1-0.07-0.25-0.19-0.35-0.27-0.1-0.09-0.29-0.26-0.41-0.38-0.13-0.13-0.32-0.34-0.43-0.47-0.1-0.14-0.26-0.35-0.35-0.49-0.08-0.13-0.21-0.34-0.28-0.47-0.07-0.12-0.18-0.35-0.24-0.49-0.07-0.14-0.16-0.37-0.2-0.5-0.05-0.13-0.13-0.36-0.17-0.51s-0.1-0.39-0.13-0.53c-0.04-0.14-0.08-0.36-0.1-0.49s-0.05-0.34-0.07-0.46c-0.01-0.13-0.04-0.33-0.05-0.44s-0.02-0.51-0.03-0.89c-0.01-0.45 0-0.84 0.01-1.08 0.01-0.22 0.04-0.52 0.05-0.68 0.02-0.16 0.05-0.42 0.07-0.59s0.07-0.49 0.1-0.72c0.04-0.22 0.1-0.56 0.14-0.75s0.11-0.55 0.17-0.8 0.17-0.67 0.24-0.94 0.18-0.64 0.23-0.82c0.06-0.18 0.16-0.5 0.23-0.71s0.2-0.6 0.29-0.85 0.23-0.65 0.32-0.88 0.22-0.56 0.29-0.73 0.2-0.47 0.28-0.66 0.15-0.33 0.16-0.33z"
     id="outline" /><g
     style="opacity:0"
     id="logo-fade"><g
       transform="matrix(1.3052,0,0,1.3052,-156.25,-117.94)"
       id="logo-group"><path
         stroke-miterlimit="2"
         class="c3"
         d="m 315.86,405.78 h 17.102 c 13.681,0 17.731,-4.5004 17.731,-22.142 0,-17.731 -3.3302,-21.962 -17.731,-21.962 h -17.1 v -6.75 h 17.102 c 17.641,0 24.482,8.6408 24.482,28.712 0,20.252 -7.8307,28.893 -24.482,28.893 h -17.1 z"
         style="font-variant-ligatures:normal;fill:#f09a48;stroke-width:0;stroke-miterlimit:2"
         id="path12" /><path
         stroke-miterlimit="2"
         class="c3"
         d="m 362.64,389.04 c 0,-15.571 8.1007,-23.762 21.062,-23.762 12.9613,0 21.062,8.1906 21.062,23.762 v 1.8002 h -35.193 c 0.36011,11.341 4.2304,15.211 11.701,15.211 h 5.6705 c 4.6805,0 8.1908,-2.9703 10.351,-8.8208 h 6.7505 c -2.5201,9.9908 -9.9008,15.751 -20.342,15.751 -13.501,-1e-5 -21.062,-9.0007 -21.062,-23.942 z m 35.013,-4.5004 c -0.90026,-9.2706 -4.6805,-12.511 -11.521,-12.511 h -4.8605 c -6.8405,0 -10.621,3.2404 -11.521,12.511 z"
         style="font-variant-ligatures:normal;fill:#f09a48;stroke-width:0;stroke-miterlimit:2"
         id="path15" /><path
         stroke-miterlimit="2"
         class="c3"
         d="m 412.57,365.73 14.041,40.503 h 2.5201 l 14.04,-40.5 h 7.2009 l -16.2,46.8 h -12.6 l -16.2,-46.8 z"
         style="font-variant-ligatures:normal;fill:#f09a48;stroke-width:0;stroke-miterlimit:2"
         id="path18" /><path
         id="rect21"
         d="m 455.66,355.01999 h 45.184 v 11.701 H 455.66 Z"
         style="font-variant-ligatures:normal;fill:#027373;stroke-width:0;stroke-miterlimit:2" /><path
         id="polygon23"
         d="M 104.68,122.32 H 95.394 V 95.029 l 9.356,-9.36 z"
         style="font-variant-ligatures:normal;fill:#f09a48;stroke-width:0;stroke-miterlimit:2"
         transform="matrix(1.25,0,0,1.25,353.25,259.64)" /><path
         stroke-miterlimit="2"
         class="c1"
         d="m 553.09,388.95 c 0,-15.211 9.0909,-23.672 23.852,-23.672 15.391,0 23.852,9.0008 23.852,23.672 0,15.481 -9.0909,24.122 -23.852,24.122 -15.392,-10e-6 -23.852,-9.0908 -23.852,-24.122 z m 21.152,12.511 h 5.4007 c 6.1203,0 10.351,-4.6804 10.351,-12.511 0,-7.8307 -4.2304,-12.511 -10.351,-12.511 h -5.4007 c -6.1203,0 -10.351,4.6804 -10.351,12.511 0,7.8307 4.2304,12.511 10.351,12.511 z"
         style="font-variant-ligatures:normal;fill:#027373;stroke-width:0;stroke-miterlimit:2"
         id="path26" /><path
         stroke-miterlimit="2"
         class="c1"
         d="m 617.72,354.93 v 57.605 h -11.7 v -57.61 z"
         style="font-variant-ligatures:normal;fill:#027373;stroke-width:0;stroke-miterlimit:2"
         id="path29" /><path
         stroke-miterlimit="2"
         class="c1"
         d="m 634.61,354.93 v 28.983 l 18.001,-18.182 h 14.401 l -18.722,18.902 h 0.18005 l 21.242,27.902 h -13.501 l -15.482,-20.252 -6.1203,6.2106 v 14.041 h -11.7 v -57.6 z"
         style="font-variant-ligatures:normal;fill:#027373;stroke-width:0;stroke-miterlimit:2"
         id="path32" /><path
         id="rect35"
         d="m 671.45001,354.92999 h 11.701 v 7.2006 h -11.701 z"
         style="font-variant-ligatures:normal;fill:#f09a48;stroke-width:0;stroke-miterlimit:2" /><path
         id="polygon37"
         d="M 95.32,122.32 V 84.877 h 9.36 l -0.07,37.443 z"
         style="font-variant-ligatures:normal;fill:#027373;stroke-width:0;stroke-miterlimit:2"
         transform="matrix(1.25,0,0,1.25,552.3,259.64)" /><path
         stroke-miterlimit="2"
         class="c1"
         d="m 708.14,412.54 h -5.4004 c -8.7305,0 -14.401,-5.6705 -14.401,-14.401 v -43.21 h 11.701 v 10.801 h 8.1006 v 11.701 h -8.1006 v 20.702 c 0,2.7003 0,2.7003 2.7002,2.7003 h 5.4004 z"
         style="font-variant-ligatures:normal;fill:#027373;stroke-width:0;stroke-miterlimit:2"
         id="path40" /><path
         style="fill:#038c7f;stroke-width:0.26550001"
         d="m 538.52,366.4 c -0.26379,-0.003 -0.52625,-0.003 -0.58309,-1.5e-4 -0.0568,0.003 -0.22955,0.0124 -0.38381,0.0211 -0.15426,0.009 -0.38335,0.0257 -0.50928,0.0375 -0.12577,0.012 -0.36166,0.0384 -0.52404,0.0587 -0.16238,0.0205 -0.43797,0.0602 -0.61262,0.0886 -0.17448,0.0282 -0.42366,0.0716 -0.55357,0.0964 -0.1299,0.0247 -0.38468,0.0779 -0.56625,0.11809 -0.18143,0.0403 -0.45053,0.10348 -0.59786,0.14039 -0.14732,0.037 -0.40005,0.10377 -0.56169,0.1485 -0.16164,0.0447 -0.41407,0.1178 -0.56095,0.16223 -0.14688,0.0446 -0.42971,0.13448 -0.6287,0.19988 -0.19884,0.0655 -0.55208,0.18791 -0.78487,0.27192 -0.23265,0.0841 -0.59801,0.22202 -0.8119,0.30647 -0.21375,0.0844 -0.50825,0.20356 -0.65441,0.26468 -0.14614,0.0611 -0.4086,0.17404 -0.58309,0.25095 -0.17448,0.0769 -0.45347,0.20282 -0.61999,0.2796 -0.16637,0.0768 -0.46426,0.21847 -0.66179,0.31472 l -0.35917,0.17508 -0.19441,-0.0486 c -0.10687,-0.0266 -0.32388,-0.0779 -0.48225,-0.11411 -0.15825,-0.0362 -0.40404,-0.089 -0.54619,-0.11736 -0.14201,-0.0283 -0.39119,-0.0744 -0.55357,-0.10259 -0.16238,-0.0281 -0.43133,-0.0707 -0.59785,-0.0946 -0.16637,-0.0239 -0.45201,-0.0604 -0.63476,-0.0811 -0.1826,-0.0205 -0.45172,-0.0475 -0.59785,-0.0598 -0.14614,-0.0124 -0.36535,-0.0289 -0.48714,-0.0368 -0.12178,-0.008 -0.43725,-0.0221 -0.70119,-0.0314 -0.28209,-0.01 -0.68658,-0.0133 -0.98165,-0.008 -0.27605,0.005 -0.62812,0.0161 -0.78238,0.0241 -0.15426,0.008 -0.41657,0.0249 -0.58309,0.0375 -0.16637,0.0124 -0.39886,0.0323 -0.51666,0.0443 -0.11766,0.012 -0.35015,0.0387 -0.51667,0.0592 -0.16636,0.0205 -0.43547,0.0574 -0.59785,0.0821 -0.16238,0.0245 -0.44137,0.0711 -0.62,0.10363 -0.17861,0.0325 -0.46425,0.0889 -0.63475,0.12532 -0.1705,0.0365 -0.47238,0.10629 -0.67079,0.15515 -0.1984,0.0489 -0.50073,0.12858 -0.67166,0.17699 -0.17094,0.0484 -0.45791,0.13434 -0.63771,0.19088 -0.17979,0.0565 -0.46544,0.1516 -0.63475,0.21138 -0.16932,0.0598 -0.42411,0.15323 -0.56626,0.20785 -0.14201,0.0545 -0.37125,0.14585 -0.50928,0.20297 -0.13803,0.0571 -0.3695,0.15633 -0.51446,0.2204 -0.14496,0.0641 -0.40404,0.18408 -0.57571,0.26659 -0.17168,0.0827 -0.44506,0.21965 -0.60744,0.30439 -0.16238,0.0847 -0.41482,0.22069 -0.56095,0.30204 -0.14614,0.0813 -0.37199,0.21124 -0.5019,0.28859 -0.1299,0.0775 -0.33583,0.20372 -0.45762,0.28077 -0.12178,0.0769 -0.35014,0.22571 -0.5075,0.33081 -0.15736,0.10511 -0.37982,0.25804 -0.49452,0.33998 -0.1147,0.0819 -0.32521,0.23663 -0.46794,0.34379 -0.14275,0.10732 -0.36151,0.27634 -0.48597,0.37569 -0.12459,0.0995 -0.31,0.25095 -0.41217,0.33657 -0.10215,0.0858 -0.26541,0.22556 -0.36283,0.31103 -0.0974,0.0853 -0.25331,0.22512 -0.34632,0.31074 -0.093,0.0856 -0.29834,0.27857 -0.45629,0.42884 -0.1578,0.15013 -0.38086,0.37332 -0.49555,0.49601 -0.13301,0.1423 -0.22571,0.25523 -0.25627,0.31265 -0.0264,0.0494 -0.0611,0.14127 -0.077,0.20401 -0.0174,0.0681 -0.0291,0.16208 -0.0291,0.23338 1.4e-4,0.0657 0.0103,0.16179 0.0224,0.21375 0.0123,0.0518 0.0503,0.14806 0.0844,0.21405 0.0416,0.0802 0.0943,0.1519 0.15928,0.21715 0.0534,0.0534 0.13994,0.12104 0.1922,0.14998 0.0523,0.0289 0.14156,0.067 0.1984,0.0846 0.0729,0.0226 0.14451,0.0325 0.24357,0.0335 0.0772,7.5e-4 0.17684,-0.007 0.22142,-0.0176 0.0447,-0.0103 0.13773,-0.0455 0.20667,-0.0781 l 0.12547,-0.0593 0.23619,-0.23737 c 0.12991,-0.13065 0.3472,-0.34529 0.483,-0.47695 0.13581,-0.13182 0.34499,-0.32816 0.465,-0.43651 0.12001,-0.10835 0.30792,-0.27367 0.41747,-0.36756 0.10968,-0.0937 0.32194,-0.26924 0.47208,-0.39001 0.14998,-0.12061 0.4123,-0.32328 0.58309,-0.4504 0.17065,-0.12695 0.43651,-0.31783 0.59077,-0.42395 0.15426,-0.10599 0.38335,-0.25877 0.50928,-0.33936 0.12592,-0.0808 0.36166,-0.2266 0.52404,-0.32418 0.16238,-0.0977 0.41482,-0.24386 0.56095,-0.32476 0.14614,-0.081 0.39533,-0.21419 0.55357,-0.29611 0.15825,-0.0818 0.40744,-0.20489 0.55357,-0.27354 0.14614,-0.0685 0.35208,-0.16283 0.45761,-0.20962 0.10555,-0.0468 0.32683,-0.14053 0.49158,-0.20844 0.16489,-0.0678 0.41731,-0.16754 0.56095,-0.22157 0.14377,-0.054 0.45732,-0.16327 0.69675,-0.24283 0.23958,-0.0796 0.57496,-0.18453 0.74547,-0.23324 0.1705,-0.0487 0.42631,-0.11854 0.56833,-0.15529 0.14215,-0.0366 0.4244,-0.10319 0.62737,-0.14792 0.20298,-0.0446 0.49527,-0.10451 0.64952,-0.13315 0.15426,-0.0285 0.36491,-0.0654 0.46811,-0.0818 0.10318,-0.0164 0.28254,-0.0434 0.39856,-0.0601 0.11603,-0.0165 0.35384,-0.0462 0.52832,-0.0658 0.17464,-0.0196 0.43696,-0.0458 0.58309,-0.058 0.14615,-0.0122 0.38867,-0.0307 0.53881,-0.0409 0.16961,-0.0115 0.5974,-0.0188 1.1293,-0.0189 0.54087,-1.4e-4 0.96217,0.007 1.144,0.0186 0.15839,0.0105 0.43738,0.0322 0.61999,0.0481 0.18275,0.0161 0.52155,0.053 0.75285,0.0819 0.23147,0.0291 0.42353,0.0557 0.42693,0.0589 0.003,0.003 0.003,0.008 0,0.0112 -0.003,0.003 -0.13906,0.0836 -0.30145,0.1795 -0.16238,0.096 -0.43133,0.25759 -0.59785,0.35914 -0.16637,0.10171 -0.46205,0.28549 -0.6569,0.40861 -0.19486,0.12311 -0.5301,0.33893 -0.74502,0.4796 -0.21494,0.14053 -0.5571,0.36875 -0.76024,0.50707 -0.20326,0.13832 -0.52553,0.36079 -0.71639,0.49453 -0.19073,0.13359 -0.53955,0.38293 -0.775,0.55385 -0.23545,0.17095 -0.60406,0.44344 -0.81928,0.60553 -0.21508,0.16194 -0.57053,0.43415 -0.78975,0.60465 -0.21922,0.1705 -0.58458,0.45953 -0.8119,0.6423 -0.22734,0.18275 -0.58931,0.47843 -0.80452,0.65706 -0.21508,0.17862 -0.52728,0.44107 -0.69381,0.58325 -0.16636,0.14215 -0.45865,0.39504 -0.64952,0.56182 -0.19072,0.16696 -0.51621,0.45584 -0.72332,0.64214 -0.20711,0.18615 -0.4594,0.41524 -0.56095,0.50912 -0.10142,0.0937 -0.28417,0.26335 -0.40595,0.37672 -0.12179,0.11337 -0.28462,0.26617 -0.36167,0.33968 -0.0772,0.0734 -0.4334,0.41761 -0.79153,0.76496 -0.35827,0.34719 -0.9232,0.91183 -1.2556,1.2548 -0.33243,0.34276 -0.71712,0.74282 -0.85502,0.88895 -0.13787,0.14614 -0.37008,0.39517 -0.51592,0.55357 -0.14584,0.15824 -0.38484,0.42071 -0.53113,0.58309 -0.14629,0.16238 -0.38927,0.43473 -0.53984,0.60523 -0.15057,0.1705 -0.41628,0.47607 -0.59063,0.67905 -0.17419,0.20297 -0.46617,0.54839 -0.64878,0.76761 -0.1826,0.21921 -0.44537,0.53806 -0.58367,0.70857 -0.13832,0.17049 -0.36448,0.45289 -0.50249,0.62737 -0.13802,0.17449 -0.36623,0.46678 -0.50708,0.64952 -0.14068,0.1826 -0.3897,0.51149 -0.55311,0.73071 -0.16356,0.21921 -0.41039,0.5546 -0.54871,0.74547 -0.13832,0.19072 -0.36092,0.50294 -0.49481,0.69381 -0.13389,0.19072 -0.35636,0.51297 -0.49423,0.71594 -0.13773,0.20298 -0.36374,0.54176 -0.50206,0.75285 -0.13817,0.2111 -0.29805,0.45688 -0.35503,0.54619 -0.0571,0.0893 -0.18659,0.29524 -0.28785,0.45762 -0.10127,0.16238 -0.27251,0.44136 -0.38057,0.61999 -0.10806,0.17862 -0.28756,0.4808 -0.39873,0.67166 -0.11116,0.19073 -0.28196,0.48964 -0.37953,0.66429 -0.0976,0.17448 -0.24047,0.43356 -0.31754,0.57571 -0.0771,0.142 -0.21346,0.39782 -0.30307,0.56833 -0.0896,0.17049 -0.23751,0.45939 -0.3289,0.64213 -0.0914,0.18261 -0.23899,0.48494 -0.328,0.67167 -0.0892,0.18673 -0.22836,0.48565 -0.30954,0.66428 -0.0812,0.17861 -0.22586,0.50737 -0.32137,0.73071 -0.0957,0.22319 -0.23869,0.56878 -0.31783,0.76761 -0.079,0.19884 -0.20681,0.53097 -0.28387,0.73809 -0.0769,0.20711 -0.21523,0.60229 -0.30718,0.87833 -0.092,0.27604 -0.21124,0.65129 -0.26498,0.83404 -0.0537,0.1826 -0.13713,0.47888 -0.18526,0.65823 -0.0481,0.17935 -0.12031,0.46499 -0.16031,0.63475 -0.04,0.16976 -0.10274,0.4548 -0.13935,0.63343 -0.0365,0.17862 -0.0899,0.46426 -0.11868,0.63476 -0.0288,0.1705 -0.0689,0.42958 -0.0892,0.57571 -0.0204,0.14614 -0.05,0.39193 -0.0661,0.54619 -0.0161,0.15426 -0.0379,0.38675 -0.0486,0.51666 -0.0127,0.1547 -0.0192,0.49601 -0.0191,0.98904 1.5e-4,0.60685 0.005,0.80585 0.0264,1.026 0.0143,0.15012 0.0427,0.39607 0.0629,0.54618 0.0202,0.15013 0.0633,0.40595 0.0958,0.56833 0.0323,0.16238 0.0855,0.39812 0.11794,0.52405 0.0326,0.12577 0.10821,0.37493 0.16814,0.55356 0.0599,0.17862 0.14673,0.41437 0.19308,0.52405 0.0462,0.10953 0.1364,0.30439 0.20047,0.43281 0.0641,0.12843 0.14393,0.28122 0.17758,0.33953 0.0335,0.0583 0.098,0.16577 0.14334,0.23884 0.0452,0.0731 0.13168,0.20416 0.19191,0.29139 0.0604,0.0872 0.17138,0.23575 0.24681,0.33007 0.0753,0.0943 0.21183,0.25434 0.3032,0.35561 0.0914,0.10142 0.24298,0.25523 0.337,0.34204 0.0939,0.0866 0.22733,0.20445 0.29627,0.26158 0.0691,0.0571 0.19338,0.155 0.27634,0.21759 0.083,0.0626 0.23574,0.16932 0.33952,0.23707 0.10377,0.0678 0.26836,0.16858 0.3658,0.22394 0.0974,0.0552 0.28342,0.15175 0.41333,0.2142 0.12991,0.0626 0.33599,0.15396 0.45791,0.20297 0.12194,0.049 0.31369,0.12001 0.42631,0.15751 0.11264,0.0376 0.31178,0.0982 0.44257,0.13433 0.13093,0.0362 0.34424,0.0886 0.47415,0.11647 0.12991,0.0278 0.3159,0.0641 0.41333,0.0806 0.0974,0.0164 0.28151,0.0433 0.40919,0.0596 0.12754,0.0164 0.35341,0.04 0.5019,0.0524 0.14836,0.0126 0.47578,0.0269 0.72747,0.0317 0.27562,0.005 0.59844,0.002 0.8119,-0.008 0.19486,-0.009 0.4706,-0.0272 0.61262,-0.0394 0.14215,-0.0121 0.39458,-0.0385 0.56095,-0.0588 0.16651,-0.0202 0.45214,-0.0604 0.63475,-0.0893 0.18275,-0.0288 0.46824,-0.079 0.63447,-0.11145 0.16636,-0.0325 0.4188,-0.0855 0.56095,-0.1178 0.1423,-0.0323 0.39148,-0.0921 0.55386,-0.13286 0.16238,-0.0406 0.41391,-0.10687 0.55917,-0.14732 0.1451,-0.0405 0.40417,-0.11618 0.57571,-0.16829 0.17138,-0.0521 0.42145,-0.13064 0.55534,-0.17463 0.13404,-0.0438 0.35325,-0.11795 0.48714,-0.16459 0.13404,-0.0468 0.37643,-0.13448 0.53881,-0.19501 0.16238,-0.0605 0.39811,-0.15027 0.52404,-0.19928 0.12592,-0.049 0.35843,-0.1423 0.51666,-0.20711 0.15825,-0.065 0.46397,-0.19441 0.67905,-0.28769 0.21522,-0.0934 0.57526,-0.25553 0.80024,-0.36018 0.22497,-0.10466 0.57837,-0.27264 0.78532,-0.37332 l 0.37627,-0.18305 0.17109,0.0433 c 0.094,0.0238 0.30498,0.0732 0.46869,0.10968 0.16356,0.0366 0.45068,0.0958 0.63786,0.13152 0.18718,0.0357 0.48979,0.0886 0.6724,0.11736 0.18276,0.0289 0.46176,0.0691 0.62,0.0893 0.15839,0.0202 0.42071,0.0502 0.58309,0.0664 0.16238,0.0163 0.43149,0.0396 0.59785,0.0518 0.16652,0.0122 0.44875,0.0289 0.62738,0.037 0.17862,0.008 0.59711,0.0149 0.92999,0.0148 0.33289,0 0.75137,-0.007 0.93,-0.0146 0.17861,-0.008 0.46425,-0.0246 0.63475,-0.037 0.1705,-0.0123 0.47076,-0.0388 0.66723,-0.059 0.19648,-0.0201 0.50543,-0.0568 0.68643,-0.0813 0.18112,-0.0246 0.46868,-0.0681 0.63919,-0.0965 0.1705,-0.0285 0.42958,-0.0753 0.57571,-0.10393 0.14614,-0.0286 0.38529,-0.0785 0.53142,-0.11071 0.14614,-0.0323 0.40964,-0.0948 0.58546,-0.13876 0.17596,-0.0441 0.44832,-0.11632 0.60523,-0.16076 0.15706,-0.0443 0.38513,-0.11145 0.50692,-0.14909 0.12178,-0.0378 0.35104,-0.11219 0.50928,-0.16548 0.1584,-0.0532 0.42735,-0.14821 0.59785,-0.21124 0.1705,-0.063 0.40964,-0.15456 0.53143,-0.20342 0.12178,-0.0487 0.34425,-0.14157 0.49452,-0.20622 0.15028,-0.0647 0.37937,-0.16622 0.50928,-0.22556 0.12991,-0.0595 0.44211,-0.21213 0.69381,-0.33923 0.25169,-0.1271 0.60316,-0.3125 0.7812,-0.41201 0.17788,-0.0996 0.42366,-0.24121 0.54619,-0.31472 0.12238,-0.0735 0.33894,-0.20652 0.48093,-0.29569 0.14215,-0.089 0.38115,-0.24519 0.53142,-0.3469 0.15028,-0.10186 0.3661,-0.25154 0.47976,-0.33272 0.11367,-0.0812 0.31294,-0.22748 0.44285,-0.32506 0.12991,-0.0976 0.3326,-0.25375 0.45024,-0.34719 0.1178,-0.0933 0.31369,-0.25317 0.43547,-0.35516 0.12179,-0.102 0.33111,-0.28239 0.465,-0.40093 0.13404,-0.11854 0.36195,-0.32696 0.50679,-0.46322 0.14466,-0.13625 0.25759,-0.25272 0.25095,-0.25877 -0.007,-0.006 -0.32107,-0.21671 -0.69869,-0.46811 -0.37747,-0.25124 -0.80601,-0.5332 -0.95214,-0.62663 -0.14614,-0.0934 -0.37568,-0.23648 -0.51016,-0.31796 -0.13433,-0.0816 -0.36018,-0.21464 -0.5019,-0.29582 -0.14156,-0.0811 -0.3695,-0.20844 -0.50633,-0.283 -0.13699,-0.0744 -0.38941,-0.2077 -0.56095,-0.29611 -0.17168,-0.0884 -0.44817,-0.22541 -0.61469,-0.30424 -0.16636,-0.079 -0.44875,-0.20829 -0.62738,-0.2874 l -0.32475,-0.14393 -0.0738,0.11765 c -0.0406,0.0647 -0.17715,0.27501 -0.3035,0.4672 -0.12621,0.1922 -0.31825,0.47578 -0.4266,0.63003 -0.10835,0.15426 -0.31324,0.43651 -0.45555,0.62738 -0.14215,0.19072 -0.33198,0.43991 -0.42188,0.55357 -0.0897,0.11366 -0.23648,0.29627 -0.32579,0.40595 -0.0893,0.10953 -0.27931,0.33538 -0.42233,0.5019 -0.14304,0.16636 -0.33185,0.38232 -0.41955,0.47976 -0.0878,0.0974 -0.2874,0.31323 -0.44388,0.47976 -0.15633,0.16636 -0.46914,0.48565 -0.69514,0.70931 -0.226,0.22364 -0.51061,0.49953 -0.63239,0.6129 -0.12179,0.11352 -0.33761,0.30971 -0.47976,0.43606 -0.14201,0.12621 -0.34056,0.29996 -0.44094,0.38601 -0.10038,0.0859 -0.21995,0.17611 -0.26571,0.20017 -0.0458,0.0242 -0.1147,0.0545 -0.15353,0.0675 -0.0387,0.013 -0.11721,0.0309 -0.17448,0.0397 -0.0742,0.0115 -0.13743,0.0117 -0.22025,5.3e-4 -0.0639,-0.009 -0.15441,-0.0291 -0.20091,-0.0455 -0.0466,-0.0164 -0.12149,-0.0514 -0.16636,-0.0779 -0.0449,-0.0264 -0.12563,-0.0917 -0.17951,-0.14496 -0.0698,-0.0689 -0.11514,-0.13123 -0.1581,-0.21714 -0.0332,-0.0663 -0.0717,-0.17154 -0.0856,-0.23413 -0.0185,-0.0828 -0.0232,-0.14998 -0.0173,-0.2477 0.006,-0.0968 0.0204,-0.16769 0.0521,-0.25449 0.0242,-0.0661 0.0716,-0.16076 0.10525,-0.21036 0.0425,-0.0626 0.15057,-0.16799 0.35221,-0.34395 0.16002,-0.1395 0.36403,-0.32004 0.45334,-0.40107 0.0893,-0.081 0.30528,-0.28164 0.47976,-0.4458 0.17449,-0.16415 0.46383,-0.447 0.64272,-0.62841 0.17892,-0.18157 0.43075,-0.44301 0.55933,-0.58102 0.12873,-0.13802 0.34778,-0.38057 0.48685,-0.53881 0.13906,-0.15839 0.33612,-0.38749 0.43813,-0.50928 0.10186,-0.12178 0.27989,-0.3404 0.39546,-0.48565 0.11544,-0.14541 0.30498,-0.39119 0.42116,-0.54619 0.11603,-0.15515 0.28903,-0.39164 0.38455,-0.52553 0.0955,-0.13404 0.27591,-0.39708 0.40078,-0.58487 0.12488,-0.18762 0.22718,-0.34706 0.22718,-0.35428 0,-0.007 -0.10127,-0.0458 -0.22512,-0.0859 -0.12385,-0.0401 -0.30808,-0.0986 -0.40964,-0.13005 -0.10141,-0.0314 -0.2874,-0.0872 -0.41333,-0.12415 -0.12577,-0.0369 -0.40151,-0.11292 -0.61261,-0.16902 -0.2111,-0.0561 -0.54574,-0.13891 -0.7437,-0.18393 -0.19795,-0.0452 -0.47354,-0.10525 -0.61261,-0.13345 -0.13906,-0.0283 -0.4188,-0.0812 -0.62177,-0.11735 -0.20298,-0.0363 -0.55166,-0.0923 -0.775,-0.12444 -0.2232,-0.0322 -0.52213,-0.0719 -0.66428,-0.0883 -0.14201,-0.0163 -0.39443,-0.0428 -0.56095,-0.0589 -0.16636,-0.0162 -0.44875,-0.0393 -0.62737,-0.0514 -0.17862,-0.0123 -0.43266,-0.0267 -0.56448,-0.0322 l -0.23959,-0.0102 -0.004,3.8885 -0.004,3.8882 -0.0306,0.0971 c -0.0168,0.0534 -0.0548,0.14053 -0.0844,0.19352 -0.0297,0.053 -0.0838,0.12976 -0.12061,0.17065 -0.0368,0.0407 -0.11189,0.10496 -0.16681,0.1426 -0.0551,0.0376 -0.14983,0.0859 -0.2105,0.10732 -0.0831,0.0292 -0.1488,0.0406 -0.26555,0.0456 -0.11337,0.005 -0.18113,5.3e-4 -0.25095,-0.0171 -0.0527,-0.0131 -0.14556,-0.0487 -0.20652,-0.0791 -0.0778,-0.0388 -0.14408,-0.0881 -0.2229,-0.16592 -0.0875,-0.0864 -0.12592,-0.13861 -0.17375,-0.23634 -0.0338,-0.0689 -0.0713,-0.17197 -0.0831,-0.2288 -0.0186,-0.0892 -0.0217,-0.62945 -0.0219,-3.9488 l -2.9e-4,-3.8455 -0.2325,0.0102 c -0.12784,0.005 -0.34204,0.0174 -0.47607,0.0263 -0.13388,0.009 -0.36315,0.026 -0.50928,0.0382 -0.14614,0.0121 -0.44506,0.0422 -0.66428,0.0667 -0.21921,0.0245 -0.56124,0.0679 -0.76023,0.0964 -0.19884,0.0283 -0.47785,0.0714 -0.62,0.0955 -0.142,0.0242 -0.41436,0.0741 -0.60523,0.11101 -0.19072,0.0369 -0.50957,0.10348 -0.70828,0.14791 -0.19884,0.0444 -0.48817,0.11337 -0.64301,0.15294 -0.15485,0.0397 -0.39326,0.10289 -0.5298,0.14053 -0.1367,0.0375 -0.3754,0.10673 -0.53069,0.15396 -0.15529,0.0471 -0.38351,0.1181 -0.50737,0.15766 -0.12385,0.0397 -0.22511,0.0775 -0.22511,0.0838 0,0.007 0.0923,0.14939 0.20504,0.31753 0.11263,0.16799 0.29876,0.43739 0.41362,0.59844 0.11485,0.16105 0.28992,0.40019 0.38912,0.53143 0.0993,0.13108 0.29759,0.38468 0.44065,0.56331 0.14304,0.17862 0.34469,0.4244 0.44803,0.54618 0.10333,0.12179 0.2852,0.33098 0.40417,0.46484 0.11898,0.13374 0.31252,0.34632 0.43029,0.47238 0.11765,0.12592 0.34351,0.36092 0.5019,0.52213 0.15825,0.16135 0.44403,0.44078 0.63476,0.62117 0.19087,0.18024 0.41673,0.3906 0.5019,0.46751 0.0853,0.0769 0.26188,0.23354 0.39252,0.34823 0.13049,0.1147 0.26512,0.23988 0.29892,0.27827 0.0338,0.0385 0.0843,0.11544 0.11205,0.17109 0.0279,0.0557 0.062,0.15205 0.0759,0.21435 0.0186,0.0837 0.023,0.14983 0.0168,0.25464 -0.005,0.0816 -0.0205,0.17625 -0.0371,0.22349 -0.0159,0.045 -0.0438,0.11145 -0.0623,0.14762 -0.0183,0.0362 -0.0632,0.10377 -0.0996,0.15027 -0.0365,0.0465 -0.10038,0.11057 -0.14186,0.14231 -0.0416,0.0317 -0.11603,0.0779 -0.16534,0.10259 -0.0493,0.0246 -0.13241,0.0559 -0.18452,0.0694 -0.07,0.0183 -0.13713,0.0232 -0.25715,0.0188 -0.12488,-0.005 -0.18629,-0.0146 -0.26587,-0.0431 -0.057,-0.0204 -0.14053,-0.0607 -0.18585,-0.0896 -0.0453,-0.0291 -0.19471,-0.15102 -0.33198,-0.27102 -0.13729,-0.12016 -0.31929,-0.28151 -0.40462,-0.35856 -0.0852,-0.0772 -0.2911,-0.26779 -0.45762,-0.42382 -0.16636,-0.15603 -0.50854,-0.49187 -0.76023,-0.74664 -0.25184,-0.25464 -0.59387,-0.61261 -0.76023,-0.79552 -0.16652,-0.18304 -0.39961,-0.44535 -0.51815,-0.58309 -0.11854,-0.13787 -0.31207,-0.36787 -0.4303,-0.51119 -0.11809,-0.14349 -0.31796,-0.39369 -0.44418,-0.55606 -0.12636,-0.16238 -0.28579,-0.37141 -0.35458,-0.46426 -0.0686,-0.0928 -0.20223,-0.27662 -0.29672,-0.40844 -0.0946,-0.13183 -0.26688,-0.38012 -0.38293,-0.55195 -0.11618,-0.17183 -0.27591,-0.41362 -0.35503,-0.53748 -0.0791,-0.12385 -0.14555,-0.22512 -0.14761,-0.22512 -0.002,0 -0.11588,0.049 -0.25317,0.1088 -0.13714,0.0599 -0.35577,0.15765 -0.48565,0.21744 -0.12991,0.0598 -0.41216,0.19574 -0.62738,0.30216 -0.21508,0.10658 -0.52404,0.26527 -0.68642,0.35267 -0.16238,0.0874 -0.4461,0.24504 -0.63033,0.35043 -0.18437,0.1054 -0.37701,0.20504 -0.42809,0.22143 -0.0537,0.0173 -0.15382,0.0331 -0.23707,0.0375 -0.10821,0.006 -0.1705,10e-4 -0.25095,-0.0182 -0.0588,-0.0142 -0.15116,-0.0481 -0.20519,-0.0753 -0.054,-0.0272 -0.13803,-0.0824 -0.18659,-0.12282 -0.0486,-0.0405 -0.12149,-0.12326 -0.16223,-0.18393 -0.0406,-0.0607 -0.0886,-0.15486 -0.10673,-0.20933 -0.018,-0.0545 -0.0379,-0.13964 -0.0441,-0.18939 -0.006,-0.0498 -0.005,-0.1457 0.002,-0.21346 0.008,-0.0729 0.0313,-0.16902 0.0574,-0.23618 0.0242,-0.0621 0.0769,-0.15751 0.11706,-0.21169 0.0401,-0.0543 0.10613,-0.12503 0.14673,-0.15706 0.0404,-0.032 0.1953,-0.12843 0.34395,-0.21405 0.14865,-0.0858 0.39326,-0.22305 0.54338,-0.30511 0.15027,-0.0821 0.48905,-0.25716 0.75285,-0.38912 0.26394,-0.13197 0.60271,-0.29701 0.75285,-0.36655 0.15028,-0.0697 0.36108,-0.16518 0.46869,-0.21227 0.10761,-0.0472 0.19559,-0.0912 0.19559,-0.0979 0,-0.007 -0.0955,-0.20313 -0.21227,-0.43651 -0.11662,-0.23338 -0.27028,-0.55046 -0.3413,-0.70472 -0.0712,-0.15426 -0.18216,-0.40345 -0.24682,-0.55357 -0.0645,-0.15027 -0.17065,-0.40594 -0.23575,-0.56832 -0.0651,-0.16238 -0.1482,-0.37494 -0.18481,-0.47238 -0.0366,-0.0974 -0.11588,-0.31664 -0.17641,-0.48714 -0.0604,-0.1705 -0.16297,-0.47888 -0.22792,-0.6851 -0.065,-0.20637 -0.15795,-0.51517 -0.20666,-0.68642 -0.0487,-0.17124 -0.13463,-0.49734 -0.19087,-0.72466 -0.0561,-0.22733 -0.13197,-0.55282 -0.16829,-0.72333 -0.0365,-0.17049 -0.0926,-0.45289 -0.12489,-0.62737 -0.0322,-0.17463 -0.0821,-0.47018 -0.11086,-0.6569 -0.0288,-0.18674 -0.0689,-0.47238 -0.0893,-0.63476 -0.0204,-0.16238 -0.0503,-0.43149 -0.0666,-0.59785 -0.0162,-0.16652 -0.0393,-0.43887 -0.0512,-0.60524 -0.012,-0.16651 -0.0263,-0.39325 -0.0317,-0.5041 l -0.01,-0.20135 -0.51844,-0.007 c -0.41437,-0.006 -0.53467,-0.0118 -0.59964,-0.0306 -0.0446,-0.013 -0.13093,-0.0486 -0.1919,-0.0791 -0.0779,-0.0393 -0.14378,-0.0886 -0.22275,-0.1671 -0.0859,-0.0853 -0.12666,-0.14068 -0.17404,-0.23634 -0.0416,-0.084 -0.0692,-0.16622 -0.0843,-0.25051 -0.0146,-0.0828 -0.0189,-0.16061 -0.0125,-0.22881 0.005,-0.0568 0.0255,-0.15367 0.0449,-0.21522 0.0193,-0.0616 0.0623,-0.15397 0.0957,-0.20549 0.0332,-0.0515 0.0957,-0.12739 0.13861,-0.16858 0.043,-0.0413 0.12046,-0.10008 0.17212,-0.13079 0.0517,-0.0306 0.13729,-0.0703 0.18999,-0.088 l 0.096,-0.0323 0.53143,-0.008 0.53142,-0.008 0.003,-0.0738 c 0.002,-0.0406 0.0103,-0.20342 0.0187,-0.36166 0.008,-0.1584 0.0254,-0.41408 0.0378,-0.56833 0.0123,-0.15426 0.0325,-0.33363 0.045,-0.39857 0.0124,-0.065 0.045,-0.1646 0.0725,-0.22143 0.0275,-0.0568 0.0784,-0.13758 0.11337,-0.1795 0.0348,-0.0418 0.0965,-0.10319 0.13684,-0.13625 0.0403,-0.0332 0.12002,-0.0833 0.17714,-0.11116 0.0571,-0.0281 0.155,-0.0613 0.21759,-0.074 0.0626,-0.0127 0.14422,-0.0232 0.18142,-0.0232 0.0372,0 0.11795,0.0103 0.17951,0.023 0.0616,0.0129 0.14747,0.039 0.19087,0.0582 0.0434,0.0192 0.10805,0.0549 0.14348,0.0793 0.0354,0.0243 0.0964,0.0763 0.13537,0.11543 0.0388,0.039 0.0934,0.10629 0.12134,0.14925 0.0279,0.0431 0.0667,0.12119 0.0865,0.17345 0.0196,0.0524 0.043,0.14156 0.0518,0.19839 0.0124,0.0803 0.0108,0.1612 -0.008,0.36536 -0.0128,0.14422 -0.0332,0.42159 -0.0453,0.61646 -0.012,0.19486 -0.0218,0.3593 -0.022,0.36536 0,0.006 2.3749,0.0111 5.2773,0.0111 h 5.2773 v -7.7096 h -0.12414 c -0.0682,0 -0.29243,-0.01 -0.49821,-0.022 -0.20578,-0.0121 -0.50029,-0.0323 -0.65454,-0.045 -0.15426,-0.0127 -0.37672,-0.0328 -0.49452,-0.0446 -0.11765,-0.012 -0.35681,-0.0385 -0.53143,-0.0592 -0.17448,-0.0205 -0.44728,-0.0565 -0.60611,-0.0799 -0.15869,-0.0232 -0.3277,-0.0561 -0.37539,-0.0728 -0.0475,-0.0167 -0.12266,-0.052 -0.16726,-0.0786 -0.0443,-0.0265 -0.12107,-0.0881 -0.17045,-0.13726 -0.0497,-0.0489 -0.1155,-0.13196 -0.14603,-0.18453 -0.0305,-0.0526 -0.0693,-0.13885 -0.0858,-0.19142 -0.0165,-0.0527 -0.0336,-0.15234 -0.0379,-0.22143 -0.005,-0.0856 -5.9e-4,-0.16061 0.0153,-0.23619 0.0128,-0.061 0.0503,-0.16548 0.0834,-0.2325 0.0434,-0.0878 0.0877,-0.14953 0.15943,-0.22142 0.0548,-0.0548 0.13625,-0.12134 0.18113,-0.14777 0.045,-0.0266 0.12045,-0.0617 0.16769,-0.0784 0.0472,-0.0167 0.13684,-0.0376 0.19899,-0.0466 l 0.11308,-0.0165 0.39044,0.0539 c 0.21479,0.0297 0.47355,0.0636 0.57497,0.0757 0.10156,0.012 0.28756,0.0319 0.41333,0.0443 0.12592,0.0122 0.30527,0.0289 0.39857,0.0371 0.0934,0.008 0.2694,0.0217 0.39119,0.0301 0.12178,0.008 0.34764,0.0219 0.5019,0.0298 0.15426,0.008 0.28549,0.0146 0.29154,0.0146 0.006,1.4e-4 0.0111,-0.83227 0.0111,-1.8498 0,-1.2643 0.005,-1.8776 0.0159,-1.9375 0.009,-0.0481 0.0331,-0.13079 0.054,-0.18349 0.0208,-0.0528 0.063,-0.1333 0.0939,-0.17891 0.0308,-0.0456 0.0965,-0.11958 0.146,-0.1643 0.0494,-0.0449 0.13787,-0.1054 0.19633,-0.13478 0.0586,-0.0292 0.14599,-0.0632 0.19441,-0.0754 0.0484,-0.0123 0.14836,-0.0223 0.22202,-0.0223 0.0737,0 0.1736,0.01 0.22201,0.0223 0.0484,0.0122 0.13788,0.0469 0.1987,0.0772 0.0788,0.0393 0.14289,0.0871 0.22275,0.16651 0.0859,0.0853 0.12666,0.14083 0.17405,0.23634 0.0401,0.081 0.0694,0.16666 0.0831,0.24313 0.0174,0.0979 0.0211,0.43266 0.0216,1.9602 l 5.3e-4,1.8421 0.17346,-0.009 c 0.0954,-0.005 0.32624,-0.0186 0.51297,-0.0304 0.18674,-0.0118 0.48565,-0.0347 0.66428,-0.0508 0.17862,-0.0161 0.46765,-0.0462 0.64214,-0.067 0.17463,-0.0207 0.43369,-0.0542 0.57571,-0.0744 0.14215,-0.0201 0.36137,-0.053 0.48714,-0.0731 0.12592,-0.0202 0.39164,-0.0669 0.59047,-0.10392 0.19899,-0.0369 0.52595,-0.10304 0.72686,-0.14703 0.20076,-0.0438 0.52287,-0.11913 0.71595,-0.1674 0.19293,-0.0481 0.46367,-0.11868 0.6017,-0.15662 0.13802,-0.0379 0.36063,-0.10186 0.49452,-0.14201 0.13389,-0.0402 0.36166,-0.11057 0.50617,-0.15648 0.18689,-0.0593 0.2604,-0.0889 0.25509,-0.10244 -0.004,-0.0106 -0.0877,-0.13965 -0.186,-0.28669 -0.0983,-0.14703 -0.25243,-0.37125 -0.34276,-0.49837 -0.0902,-0.1271 -0.26379,-0.36387 -0.38559,-0.52625 -0.12178,-0.16238 -0.31116,-0.40815 -0.42071,-0.54618 -0.10953,-0.13803 -0.29818,-0.36889 -0.41909,-0.51314 -0.12105,-0.14422 -0.29731,-0.35014 -0.39148,-0.45761 -0.0943,-0.10747 -0.27737,-0.31178 -0.40682,-0.45377 -0.12947,-0.14215 -0.53586,-0.55755 -0.90329,-0.92335 l -0.66781,-0.66487 -0.0537,-0.10687 c -0.0297,-0.0588 -0.0647,-0.14806 -0.0778,-0.19855 -0.0133,-0.0509 -0.024,-0.15116 -0.0244,-0.22467 -2.6e-4,-0.0788 0.01,-0.17095 0.0244,-0.22645 0.0137,-0.0515 0.0465,-0.13713 0.0728,-0.19043 0.0275,-0.0555 0.0911,-0.14304 0.14865,-0.20489 0.0554,-0.0595 0.13846,-0.13109 0.18467,-0.15913 0.0462,-0.028 0.13699,-0.0691 0.20194,-0.0912 0.10023,-0.0341 0.1423,-0.0401 0.28032,-0.0401 0.13625,-1.5e-4 0.18186,0.006 0.28358,0.0396 0.0716,0.0233 0.16636,0.0698 0.23116,0.11308 0.0741,0.0496 0.2821,0.24342 0.63978,0.59607 0.29155,0.28756 0.65305,0.65454 0.80348,0.81559 0.15043,0.1609 0.33936,0.3658 0.41984,0.45525 0.0806,0.0893 0.22999,0.25878 0.33198,0.37643 0.102,0.11765 0.28196,0.33007 0.3996,0.47222 0.1178,0.142 0.30042,0.36787 0.40579,0.5019 0.10555,0.13389 0.28151,0.36315 0.39119,0.50928 0.10968,0.14614 0.28255,0.38189 0.3841,0.52404 0.10156,0.14201 0.27458,0.39119 0.38426,0.55357 0.10982,0.16238 0.25789,0.38662 0.32903,0.49821 0.0711,0.1116 0.13493,0.20298 0.14172,0.20298 0.007,0 0.11735,-0.0459 0.24548,-0.10201 0.12828,-0.0561 0.29967,-0.13167 0.38086,-0.16799 0.0812,-0.0365 0.29715,-0.13743 0.47976,-0.22467 0.18275,-0.0872 0.44846,-0.21848 0.59048,-0.29184 0.14215,-0.0732 0.37464,-0.19633 0.51666,-0.27339 0.14215,-0.0772 0.35133,-0.19338 0.46499,-0.25803 0.11367,-0.0648 0.31295,-0.18128 0.44286,-0.25878 0.1299,-0.0775 0.32593,-0.19707 0.43547,-0.26541 0.10968,-0.0685 0.56966,-0.37054 1.0223,-0.67122 0.45259,-0.3007 0.82297,-0.55104 0.82297,-0.55651 0,-0.005 -0.12459,-0.12606 -0.27679,-0.26823 -0.15219,-0.14201 -0.34321,-0.31797 -0.4244,-0.39103 -0.0812,-0.0731 -0.24726,-0.21789 -0.36904,-0.32182 -0.12179,-0.10407 -0.33435,-0.28018 -0.47238,-0.39134 -0.13802,-0.11131 -0.3605,-0.28565 -0.49452,-0.3875 -0.13389,-0.10186 -0.36639,-0.27325 -0.51666,-0.38086 -0.15028,-0.10761 -0.43577,-0.30349 -0.63476,-0.43531 -0.19884,-0.13183 -0.46455,-0.30278 -0.59047,-0.37996 -0.12577,-0.0772 -0.32845,-0.1987 -0.45024,-0.26999 -0.12178,-0.0713 -0.34764,-0.19899 -0.5019,-0.28358 -0.15426,-0.0847 -0.483,-0.25523 -0.73071,-0.37879 -0.24755,-0.1237 -0.57969,-0.28342 -0.73809,-0.35486 -0.15825,-0.0714 -0.40077,-0.1767 -0.5388,-0.23398 -0.13803,-0.0571 -0.25583,-0.1082 -0.26188,-0.11337 -0.006,-0.005 0.1178,-0.0642 0.2753,-0.13094 0.15736,-0.0667 0.45791,-0.18998 0.66781,-0.27383 0.20991,-0.0838 0.53113,-0.20741 0.71374,-0.27488 0.18276,-0.0673 0.49822,-0.17846 0.70119,-0.24696 0.20297,-0.0686 0.50618,-0.1671 0.67373,-0.21892 0.16755,-0.0518 0.42337,-0.12725 0.56833,-0.16769 0.14497,-0.0403 0.39326,-0.10658 0.5515,-0.14703 0.15839,-0.0405 0.45923,-0.11086 0.66871,-0.15648 0.20962,-0.0456 0.55506,-0.11204 0.76762,-0.14791 0.21272,-0.0357 0.52301,-0.0819 0.68937,-0.10259 0.16651,-0.0207 0.42559,-0.0492 0.57571,-0.0632 0.21168,-0.0198 0.42735,-0.0255 0.95952,-0.026 0.45703,-2.9e-4 0.74812,0.006 0.87094,0.0186 0.10156,0.0103 0.28756,0.0322 0.41333,0.0483 0.12592,0.0162 0.35843,0.0557 0.51666,0.0877 0.1584,0.032 0.39281,0.0884 0.5211,0.12532 0.12828,0.0368 0.31634,0.0971 0.41806,0.13389 0.10171,0.0369 0.24534,0.0937 0.31929,0.12622 0.074,0.0325 0.21286,0.0985 0.30867,0.14658 0.0958,0.0481 0.24903,0.13241 0.34056,0.18733 0.0915,0.0549 0.24253,0.15544 0.33567,0.22334 0.093,0.0679 0.22585,0.17169 0.29523,0.23058 0.0692,0.0589 0.20372,0.18615 0.2988,0.28255 0.0951,0.0964 0.21508,0.22659 0.26674,0.28934 0.0518,0.0627 0.14127,0.17995 0.19899,0.26055 0.0577,0.0806 0.15648,0.23205 0.21936,0.33628 0.0629,0.10436 0.16224,0.28934 0.22069,0.41113 0.0583,0.12178 0.13094,0.28445 0.1612,0.36166 0.0304,0.0771 0.084,0.22659 0.11928,0.33214 0.0353,0.10555 0.0908,0.29478 0.12326,0.42071 0.0326,0.12577 0.0756,0.31178 0.0955,0.41333 0.0199,0.10141 0.05,0.28077 0.0669,0.39857 0.0168,0.11765 0.041,0.31693 0.0537,0.44285 0.013,0.12858 0.0267,0.45173 0.0314,0.73809 0.005,0.31959 0.002,0.62207 -0.009,0.8119 -0.01,0.16637 -0.0307,0.43548 -0.0468,0.59786 -0.0163,0.16238 -0.0523,0.45541 -0.0802,0.65113 -0.0279,0.19575 -0.0744,0.48138 -0.10333,0.63476 -0.0291,0.15338 -0.076,0.38838 -0.10452,0.52243 -0.0285,0.13389 -0.0815,0.36639 -0.1178,0.51666 -0.0363,0.15013 -0.0995,0.39591 -0.14038,0.54619 -0.0409,0.15027 -0.12031,0.42588 -0.17626,0.61261 -0.0561,0.18674 -0.16784,0.53541 -0.24829,0.775 -0.0804,0.23943 -0.2105,0.60743 -0.28918,0.8175 -0.0785,0.2102 -0.19486,0.51238 -0.25863,0.67166 -0.0636,0.15928 -0.17345,0.42573 -0.24401,0.59225 -0.0706,0.16636 -0.1333,0.30793 -0.1395,0.31427 -0.006,0.007 -0.0564,-0.0998 -0.1119,-0.23619 -0.0555,-0.13625 -0.15529,-0.37066 -0.22187,-0.52093 -0.0664,-0.15028 -0.17522,-0.38941 -0.24194,-0.53143 -0.0666,-0.14216 -0.19456,-0.40122 -0.28446,-0.57571 -0.0897,-0.17448 -0.24622,-0.46691 -0.34794,-0.64952 -0.10156,-0.18275 -0.26453,-0.465 -0.36195,-0.62738 -0.0976,-0.16238 -0.24357,-0.39827 -0.32447,-0.52404 -0.0807,-0.12592 -0.22866,-0.34926 -0.32845,-0.4963 -0.0999,-0.14717 -0.24298,-0.35311 -0.31812,-0.45761 -0.0751,-0.10466 -0.21479,-0.29407 -0.31045,-0.42101 -0.0955,-0.12695 -0.25494,-0.33288 -0.35444,-0.45761 -0.0993,-0.12474 -0.26306,-0.32476 -0.36387,-0.44448 -0.10068,-0.11972 -0.18925,-0.21773 -0.19663,-0.21773 -0.008,0 -0.43045,0.27782 -0.93989,0.61747 -0.50945,0.33952 -1.0755,0.71077 -1.2583,0.82475 -0.1826,0.11411 -0.46823,0.28698 -0.63476,0.3841 -0.16636,0.0971 -0.42219,0.24312 -0.56832,0.32447 -0.14615,0.0813 -0.42515,0.23072 -0.62,0.33198 -0.19486,0.10126 -0.50841,0.25833 -0.69662,0.3491 -0.18821,0.0908 -0.42411,0.20224 -0.52404,0.24771 -0.0999,0.0455 -0.23486,0.10599 -0.29981,0.13433 -0.065,0.0285 -0.13935,0.0608 -0.16518,0.072 l -0.0472,0.0204 0.22527,0.4467 c 0.12385,0.24564 0.28358,0.5729 0.35486,0.72718 0.0714,0.15426 0.208,0.46309 0.3035,0.68642 0.0956,0.2232 0.23043,0.55208 0.29967,0.73071 0.0692,0.17862 0.1823,0.4842 0.25139,0.67905 0.0691,0.19485 0.17286,0.50264 0.23073,0.68406 0.0579,0.18127 0.1519,0.49348 0.20888,0.6938 0.057,0.20017 0.14274,0.52006 0.19072,0.71093 0.0478,0.19087 0.11337,0.46648 0.1457,0.61262 0.0323,0.14614 0.0856,0.4018 0.11839,0.56832 0.0328,0.16637 0.0865,0.46529 0.11942,0.66429 0.0331,0.19884 0.0799,0.51076 0.10407,0.69306 0.0244,0.1823 0.0604,0.48788 0.0802,0.67904 0.0198,0.19116 0.0462,0.49704 0.0587,0.67979 0.0127,0.1826 0.0269,0.39355 0.0317,0.46868 l 0.009,0.13655 h 8.2565 l -0.004,-0.0923 c -0.002,-0.0508 -0.0139,-0.24844 -0.0261,-0.43917 -0.0124,-0.19087 -0.0354,-0.48639 -0.0515,-0.6569 -0.0159,-0.17049 -0.0461,-0.44625 -0.0667,-0.61261 -0.0206,-0.16651 -0.061,-0.45541 -0.0894,-0.64214 -0.0286,-0.18674 -0.0781,-0.47901 -0.11013,-0.64952 -0.032,-0.1705 -0.0787,-0.4064 -0.10348,-0.52404 -0.0249,-0.1178 -0.0778,-0.34882 -0.11765,-0.51372 l -0.0725,-0.29967 0.13079,-0.26128 c 0.0719,-0.14363 0.20814,-0.42602 0.30262,-0.62738 0.0945,-0.20135 0.21552,-0.46383 0.26895,-0.58309 0.0534,-0.11942 0.16031,-0.36315 0.23737,-0.54175 0.0771,-0.17862 0.20873,-0.49423 0.29242,-0.70119 0.0838,-0.20711 0.22541,-0.57247 0.31457,-0.8119 0.0893,-0.23958 0.21965,-0.60465 0.28976,-0.81131 0.07,-0.20681 0.16652,-0.50235 0.21449,-0.6569 0.048,-0.15456 0.12444,-0.41068 0.16991,-0.56891 0.0455,-0.1584 0.12193,-0.44065 0.17006,-0.62738 0.048,-0.18674 0.1113,-0.4458 0.14082,-0.57571 0.0294,-0.12991 0.0796,-0.36506 0.11145,-0.52256 0.0317,-0.15751 0.0776,-0.39989 0.10171,-0.5388 0.0241,-0.13876 0.0602,-0.36876 0.0804,-0.51077 0.0202,-0.14216 0.0503,-0.37792 0.0667,-0.52405 0.0165,-0.14614 0.0403,-0.39533 0.053,-0.55356 0.0126,-0.1584 0.0269,-0.53703 0.0314,-0.84143 0.005,-0.35075 0.002,-0.66444 -0.009,-0.85618 -0.01,-0.16651 -0.0273,-0.39902 -0.0394,-0.51666 -0.0121,-0.1178 -0.0387,-0.33037 -0.0589,-0.47238 -0.0202,-0.14216 -0.0601,-0.37465 -0.0884,-0.51666 -0.0283,-0.14216 -0.0781,-0.35931 -0.11041,-0.48287 -0.0323,-0.12356 -0.0926,-0.32949 -0.1339,-0.45762 -0.0413,-0.12813 -0.12104,-0.34984 -0.17699,-0.49244 -0.0561,-0.1426 -0.16415,-0.38514 -0.24017,-0.53881 -0.076,-0.15367 -0.17242,-0.33804 -0.21405,-0.4098 -0.0416,-0.0717 -0.11706,-0.19456 -0.16755,-0.27309 -0.0505,-0.0785 -0.14938,-0.22246 -0.2198,-0.3199 -0.0704,-0.0974 -0.19987,-0.2635 -0.2877,-0.36905 -0.088,-0.10555 -0.25966,-0.29154 -0.38189,-0.41333 -0.12208,-0.12178 -0.29834,-0.2852 -0.39164,-0.36299 -0.0934,-0.0779 -0.21301,-0.17478 -0.26571,-0.21523 -0.0528,-0.0406 -0.1891,-0.13713 -0.30262,-0.21478 -0.11367,-0.0775 -0.30278,-0.19604 -0.42026,-0.26335 -0.11736,-0.0673 -0.32003,-0.17375 -0.45023,-0.23649 -0.13006,-0.0627 -0.34616,-0.15721 -0.48021,-0.21006 -0.13389,-0.0527 -0.35649,-0.13241 -0.49452,-0.17684 -0.13803,-0.0446 -0.35724,-0.10806 -0.48714,-0.14127 -0.12991,-0.0331 -0.35238,-0.0831 -0.49452,-0.11131 -0.14201,-0.028 -0.35134,-0.0645 -0.465,-0.081 -0.11367,-0.0164 -0.30291,-0.04 -0.42071,-0.0524 -0.11765,-0.0124 -0.30705,-0.0294 -0.42071,-0.0378 -0.11367,-0.008 -0.42249,-0.0177 -0.68643,-0.0207 z m -36.076,31.902 c 0.006,0.006 0.0515,0.11042 0.10156,0.23117 0.0499,0.1206 0.14053,0.33185 0.2015,0.46943 0.061,0.13743 0.18098,0.3974 0.26659,0.57762 0.0856,0.18024 0.19928,0.41068 0.25257,0.51223 0.0532,0.10141 0.14659,0.27753 0.20756,0.39119 0.061,0.11366 0.17714,0.32256 0.25803,0.46412 0.081,0.14171 0.21287,0.36581 0.29317,0.49808 0.0802,0.13226 0.22571,0.36432 0.32343,0.51563 0.0976,0.15145 0.26792,0.40565 0.3785,0.56493 0.11056,0.15927 0.2973,0.41909 0.41511,0.57749 0.11765,0.15824 0.30394,0.40077 0.41378,0.5388 0.10982,0.13802 0.28299,0.35059 0.38484,0.47238 0.10186,0.12178 0.26792,0.31443 0.36905,0.42809 0.10111,0.11367 0.26054,0.28948 0.35457,0.39074 0.0939,0.10112 0.27384,0.28976 0.3996,0.41893 0.12592,0.12931 0.34839,0.34881 0.49452,0.48772 0.14615,0.13906 0.372,0.34852 0.50191,0.46545 0.1299,0.11691 0.35577,0.3134 0.5019,0.43651 0.14614,0.12311 0.37863,0.31356 0.51666,0.42337 0.13802,0.10983 0.38057,0.29598 0.53881,0.41378 0.15839,0.1178 0.43074,0.31323 0.60523,0.43414 0.17463,0.1209 0.44033,0.29893 0.59047,0.39576 0.15028,0.0967 0.41923,0.26364 0.59785,0.37082 0.17862,0.10732 0.46426,0.27264 0.63476,0.36743 0.1705,0.0949 0.54574,0.29035 0.83404,0.43443 0.28831,0.14408 0.68348,0.33244 0.87833,0.41851 0.19486,0.0861 0.46396,0.20091 0.59785,0.25538 0.13404,0.0543 0.24889,0.10377 0.25553,0.10998 0.007,0.006 -0.11293,0.0648 -0.26571,0.13034 -0.15279,0.0654 -0.43606,0.18305 -0.62958,0.26129 -0.19368,0.0782 -0.47591,0.1888 -0.62738,0.24563 -0.1516,0.057 -0.44211,0.16238 -0.64583,0.23442 -0.20356,0.0719 -0.5524,0.18792 -0.77499,0.25774 -0.22246,0.07 -0.56066,0.1705 -0.75152,0.22379 -0.19073,0.0531 -0.49304,0.13226 -0.67167,0.17567 -0.17861,0.0434 -0.4343,0.1023 -0.56833,0.13093 -0.13389,0.0286 -0.37302,0.0757 -0.53142,0.10481 -0.15825,0.0291 -0.44729,0.0754 -0.64214,0.10319 -0.19486,0.0278 -0.45716,0.0605 -0.58309,0.0729 -0.12577,0.0124 -0.32181,0.0295 -0.43547,0.0381 -0.11367,0.009 -0.38928,0.0196 -0.61262,0.0245 -0.24386,0.005 -0.5298,0.002 -0.71595,-0.009 -0.17049,-0.009 -0.40138,-0.0269 -0.51313,-0.0387 -0.11174,-0.0118 -0.29436,-0.0353 -0.40595,-0.0521 -0.1116,-0.017 -0.28254,-0.0474 -0.37995,-0.0676 -0.0974,-0.0202 -0.25361,-0.0561 -0.3472,-0.0796 -0.0936,-0.0233 -0.26629,-0.0735 -0.38381,-0.11131 -0.1175,-0.0378 -0.29005,-0.0985 -0.38351,-0.13462 -0.0933,-0.0363 -0.28268,-0.12194 -0.42071,-0.19028 -0.13802,-0.0684 -0.32224,-0.16903 -0.40948,-0.22394 -0.0873,-0.0548 -0.21759,-0.14142 -0.28977,-0.19235 -0.072,-0.0511 -0.19367,-0.14496 -0.27014,-0.20888 -0.0765,-0.0638 -0.21774,-0.19485 -0.31369,-0.29109 -0.0961,-0.0962 -0.24165,-0.25804 -0.32328,-0.35946 -0.0816,-0.10156 -0.20282,-0.26763 -0.26911,-0.36905 -0.0663,-0.10156 -0.16415,-0.26423 -0.21744,-0.36166 -0.0533,-0.0974 -0.13655,-0.26688 -0.18511,-0.37643 -0.0484,-0.10953 -0.11809,-0.28254 -0.155,-0.38425 -0.0367,-0.10171 -0.0937,-0.27766 -0.12651,-0.39119 -0.0328,-0.11337 -0.0796,-0.29598 -0.10392,-0.4055 -0.0245,-0.10953 -0.0577,-0.27899 -0.074,-0.37643 -0.0162,-0.0974 -0.0396,-0.25685 -0.052,-0.35428 -0.0122,-0.0974 -0.0295,-0.24697 -0.0384,-0.33214 -0.009,-0.0853 -0.0196,-0.39517 -0.0242,-0.68863 -0.005,-0.33968 -0.002,-0.64007 0.009,-0.82666 0.01,-0.1612 0.0273,-0.39267 0.0393,-0.51446 0.0118,-0.12178 0.0348,-0.3277 0.0512,-0.45761 0.0162,-0.12991 0.0526,-0.37569 0.0806,-0.54619 0.028,-0.1705 0.0747,-0.42958 0.10378,-0.57571 0.0292,-0.14614 0.089,-0.42188 0.13301,-0.61262 0.044,-0.19087 0.12606,-0.51637 0.18245,-0.72332 0.0564,-0.20711 0.1367,-0.48935 0.17833,-0.62738 0.0418,-0.13802 0.11927,-0.38381 0.17241,-0.54619 0.0533,-0.16238 0.15308,-0.45467 0.22217,-0.64952 0.0689,-0.19485 0.18024,-0.49717 0.24726,-0.67166 0.067,-0.17463 0.16651,-0.42705 0.22113,-0.56095 0.0545,-0.13403 0.14939,-0.36182 0.2108,-0.50617 0.0616,-0.14452 0.11662,-0.25745 0.12252,-0.25095 z m 28.918,-18.152 c -0.005,5.8e-4 -0.14275,0.0466 -0.30511,0.1023 -0.16238,0.0556 -0.41378,0.13832 -0.55875,0.18378 -0.14481,0.0453 -0.41391,0.12592 -0.59785,0.17891 -0.18393,0.0532 -0.52699,0.14541 -0.76244,0.20519 -0.23545,0.0598 -0.57749,0.14201 -0.76023,0.18261 -0.1826,0.0407 -0.48714,0.10451 -0.67668,0.14186 -0.18939,0.0374 -0.49837,0.0939 -0.68642,0.12577 -0.18807,0.0317 -0.50456,0.0812 -0.70355,0.10968 -0.19884,0.0285 -0.54101,0.0719 -0.76023,0.0962 -0.21922,0.0244 -0.51476,0.0545 -0.6569,0.0669 -0.14201,0.0124 -0.40107,0.0325 -0.57571,0.0444 -0.17449,0.0121 -0.44198,0.0264 -0.59417,0.0319 l -0.27678,0.01 v 7.7011 h 10.54 l -1.5e-4,-0.0627 c 0,-0.0345 -0.01,-0.19899 -0.0221,-0.36535 -0.0121,-0.16652 -0.0323,-0.4089 -0.0449,-0.53881 -0.0127,-0.1299 -0.0329,-0.31929 -0.045,-0.42071 -0.0121,-0.10156 -0.0387,-0.3041 -0.0589,-0.45023 -0.0204,-0.14615 -0.0602,-0.40521 -0.0887,-0.57571 -0.0285,-0.1705 -0.0743,-0.42292 -0.10171,-0.56095 -0.0275,-0.13803 -0.0771,-0.37377 -0.11027,-0.52405 -0.0332,-0.15027 -0.10038,-0.42912 -0.14924,-0.61999 -0.0489,-0.19087 -0.13197,-0.49643 -0.18497,-0.67904 -0.0528,-0.18276 -0.16474,-0.53807 -0.24858,-0.78976 -0.0838,-0.25169 -0.20372,-0.59387 -0.26646,-0.76023 -0.0629,-0.16652 -0.15072,-0.39223 -0.1953,-0.5019 -0.0446,-0.10969 -0.12769,-0.30897 -0.18467,-0.44286 -0.057,-0.13389 -0.15987,-0.36639 -0.22866,-0.51666 -0.0686,-0.15028 -0.21006,-0.4436 -0.31414,-0.65204 -0.10422,-0.20829 -0.23028,-0.45571 -0.28047,-0.54988 -0.05,-0.094 -0.0955,-0.17035 -0.10083,-0.16961 z m -15.034,11.026 h -5.2755 l 0.005,0.0701 c 0.003,0.0385 0.0119,0.18969 0.0205,0.33583 0.009,0.14614 0.0288,0.40845 0.0449,0.58309 0.0159,0.17449 0.0427,0.4303 0.0593,0.56833 0.0167,0.13802 0.0499,0.3853 0.0738,0.54929 0.0241,0.16416 0.0704,0.44979 0.10318,0.63476 0.0326,0.18511 0.0927,0.49245 0.13345,0.68332 0.0407,0.19072 0.11381,0.50633 0.16238,0.70118 0.0487,0.19486 0.11824,0.46057 0.15485,0.59048 0.0365,0.1299 0.11248,0.38646 0.16887,0.5701 0.0564,0.18379 0.14836,0.46604 0.2043,0.62738 0.0561,0.1615 0.14172,0.39974 0.19043,0.52965 0.0487,0.1299 0.13492,0.35237 0.19176,0.49452 0.057,0.14201 0.14466,0.35412 0.195,0.47121 0.0505,0.11706 0.14068,0.32107 0.20061,0.45318 0.0599,0.13227 0.17773,0.38189 0.26173,0.55473 0.0841,0.17301 0.2077,0.41732 0.27458,0.54308 0.0669,0.12563 0.12385,0.23088 0.12666,0.23354 0.003,0.003 0.1733,-0.0517 0.37908,-0.1209 0.20578,-0.0692 0.4737,-0.15648 0.59549,-0.19397 0.12178,-0.0376 0.38086,-0.11367 0.57571,-0.16902 0.19485,-0.0555 0.45732,-0.12769 0.58309,-0.16046 0.12592,-0.0328 0.3683,-0.0927 0.5388,-0.13316 0.1705,-0.0404 0.46944,-0.10702 0.66429,-0.14791 0.19485,-0.0409 0.46056,-0.0942 0.59047,-0.11868 0.1299,-0.0245 0.37568,-0.0678 0.54618,-0.0961 0.1705,-0.0285 0.4495,-0.0716 0.62,-0.096 0.1705,-0.0242 0.45289,-0.0608 0.62738,-0.0813 0.17463,-0.0205 0.41702,-0.0472 0.5388,-0.0593 0.12179,-0.0122 0.3909,-0.0353 0.59786,-0.0512 0.2071,-0.0161 0.54411,-0.0372 0.74916,-0.0471 l 0.37273,-0.018 v -7.6995 z m 12.394,0 h -5.2736 v 7.6868 l 0.22511,0.01 c 0.12385,0.006 0.38132,0.0199 0.57202,0.032 0.19087,0.0121 0.49304,0.0351 0.67167,0.0511 0.17861,0.0161 0.47429,0.0462 0.6569,0.067 0.18275,0.0207 0.47503,0.0574 0.64952,0.0816 0.17463,0.0241 0.49348,0.0732 0.70856,0.10924 0.21508,0.0359 0.54722,0.0958 0.73809,0.13315 0.19087,0.0374 0.49643,0.10127 0.67904,0.14201 0.18276,0.0409 0.50161,0.11677 0.70857,0.16858 0.20711,0.0518 0.53926,0.14039 0.73809,0.19677 0.19899,0.0565 0.50116,0.146 0.67166,0.19899 0.1705,0.053 0.45613,0.146 0.63476,0.20682 0.17862,0.0607 0.33583,0.11455 0.34927,0.11986 0.0199,0.008 0.0698,-0.0815 0.27367,-0.48979 0.13699,-0.27458 0.31428,-0.64464 0.39369,-0.82239 0.0796,-0.17773 0.20297,-0.46337 0.27426,-0.63475 0.0714,-0.17139 0.19367,-0.48197 0.27176,-0.69028 0.0781,-0.20829 0.19796,-0.54706 0.26646,-0.75285 0.0685,-0.20578 0.16858,-0.52375 0.22246,-0.70636 0.0537,-0.18275 0.13714,-0.48494 0.18526,-0.67166 0.0481,-0.18674 0.11691,-0.46914 0.15308,-0.62738 0.036,-0.1584 0.0923,-0.42411 0.12503,-0.59047 0.0328,-0.16652 0.0828,-0.44211 0.11131,-0.61262 0.0283,-0.1705 0.0683,-0.43298 0.0889,-0.58309 0.0205,-0.15027 0.0505,-0.39267 0.0667,-0.5388 0.0163,-0.14615 0.0394,-0.38203 0.0517,-0.52405 0.0121,-0.14216 0.0288,-0.37791 0.0372,-0.52404 0.008,-0.14614 0.0167,-0.30395 0.0187,-0.3506 l 0.004,-0.0849 z m 11.245,0 h -4.1333 v 0.0849 c -1.5e-4,0.0466 -0.01,0.24756 -0.0223,0.44655 -0.0121,0.19884 -0.0356,0.51106 -0.0521,0.6938 -0.0164,0.1826 -0.0431,0.44506 -0.0592,0.58309 -0.0163,0.13803 -0.0558,0.43399 -0.088,0.65765 -0.0322,0.22364 -0.0889,0.57247 -0.12577,0.77499 -0.0369,0.20253 -0.10008,0.52155 -0.14008,0.70886 -0.0402,0.18733 -0.11588,0.51313 -0.16829,0.72391 -0.0524,0.2108 -0.12592,0.49261 -0.16341,0.62634 -0.0375,0.1336 -0.11071,0.38248 -0.16268,0.55299 -0.052,0.17049 -0.1485,0.46943 -0.21448,0.66428 -0.066,0.19485 -0.17316,0.49701 -0.23811,0.67166 -0.0651,0.17448 -0.16696,0.43696 -0.2263,0.58309 -0.0595,0.14614 -0.1612,0.38853 -0.22601,0.53881 -0.0649,0.15012 -0.15898,0.36269 -0.20902,0.47237 -0.0502,0.10953 -0.19146,0.40359 -0.31398,0.65321 -0.12267,0.24963 -0.2201,0.45584 -0.21671,0.45836 0.003,0.002 0.12253,0.0567 0.26454,0.12046 0.14215,0.0638 0.4278,0.19692 0.63475,0.29582 0.20711,0.0989 0.53246,0.26143 0.72333,0.36137 0.19087,0.0998 0.47312,0.2514 0.62738,0.33687 0.15426,0.0855 0.40005,0.22526 0.54618,0.31074 0.14615,0.0853 0.37717,0.22393 0.51356,0.30793 0.13625,0.084 0.34085,0.21242 0.45451,0.28549 0.11352,0.0729 0.58529,0.38529 1.0481,0.6938 0.46279,0.30867 0.84792,0.5571 0.85589,0.55224 0.008,-0.005 0.096,-0.10628 0.19559,-0.22556 0.0996,-0.11913 0.24785,-0.2998 0.3292,-0.40122 0.0813,-0.10156 0.23102,-0.2942 0.33272,-0.42809 0.10171,-0.13404 0.26808,-0.35989 0.3695,-0.50191 0.10156,-0.14215 0.27827,-0.39856 0.39267,-0.5701 0.11441,-0.17154 0.28388,-0.43386 0.37659,-0.58309 0.0928,-0.14925 0.22497,-0.36772 0.29375,-0.48537 0.0688,-0.11765 0.17522,-0.30378 0.23633,-0.41333 0.061,-0.10968 0.18571,-0.34114 0.27695,-0.51459 0.0914,-0.17345 0.24135,-0.47325 0.33331,-0.66648 0.0921,-0.19308 0.22511,-0.483 0.29568,-0.64421 0.0706,-0.1612 0.18334,-0.42913 0.25036,-0.59565 0.0672,-0.16651 0.16534,-0.41893 0.21818,-0.56095 0.0528,-0.14216 0.14024,-0.38795 0.19427,-0.54619 0.054,-0.15839 0.14703,-0.44728 0.20652,-0.64213 0.0596,-0.19486 0.14879,-0.50382 0.19825,-0.68643 0.0494,-0.18275 0.12296,-0.47222 0.16341,-0.64362 0.0404,-0.17124 0.10643,-0.47355 0.14673,-0.67166 0.0401,-0.19811 0.0998,-0.51977 0.13242,-0.71447 0.0326,-0.19485 0.0762,-0.47726 0.0968,-0.62737 0.0207,-0.15028 0.0506,-0.38941 0.0666,-0.53143 0.0159,-0.14215 0.0391,-0.37125 0.0515,-0.50928 0.0124,-0.13802 0.0326,-0.41378 0.0449,-0.61261 0.0124,-0.19899 0.0224,-0.36669 0.0226,-0.37274 0,-0.006 -1.86,-0.0111 -4.1333,-0.0111 z"
         id="icon" /></g></g></svg>